<svg width="16" height="16" viewBox="0 0 16 16" fill="none" xmlns="http://www.w3.org/2000/svg">
<path d="M4.89294 14.3155C4.6461 14.3155 4.44141 14.1108 4.44141 13.8639V9.64965C4.44141 9.40281 4.6461 9.19812 4.89294 9.19812C5.13977 9.19812 5.34447 9.40281 5.34447 9.64965V13.8639C5.34447 14.1108 5.13977 14.3155 4.89294 14.3155Z" fill="#9E9E9E"/>
<path d="M4.89294 4.0808C4.6461 4.0808 4.44141 3.8761 4.44141 3.62927V1.82314C4.44141 1.57631 4.6461 1.37161 4.89294 1.37161C5.13977 1.37161 5.34447 1.57631 5.34447 1.82314V3.62927C5.34447 3.8761 5.13977 4.0808 4.89294 4.0808Z" fill="#9E9E9E"/>
<path d="M11.5154 14.3155C11.2685 14.3155 11.0638 14.1108 11.0638 13.8639V12.0578C11.0638 11.811 11.2685 11.6063 11.5154 11.6063C11.7622 11.6063 11.9669 11.811 11.9669 12.0578V13.8639C11.9669 14.1108 11.7622 14.3155 11.5154 14.3155Z" fill="#9E9E9E"/>
<path d="M11.5154 6.48896C11.2685 6.48896 11.0638 6.28427 11.0638 6.03743V1.82314C11.0638 1.57631 11.2685 1.37161 11.5154 1.37161C11.7622 1.37161 11.9669 1.57631 11.9669 1.82314V6.03743C11.9669 6.28427 11.7622 6.48896 11.5154 6.48896Z" fill="#9E9E9E"/>
<path d="M5.49501 10.1012H4.29093C3.25542 10.1012 2.63531 9.4811 2.63531 8.44559V4.83335C2.63531 3.79784 3.25542 3.17773 4.29093 3.17773H5.49501C6.53052 3.17773 7.15062 3.79784 7.15062 4.83335V8.44559C7.15062 9.4811 6.53052 10.1012 5.49501 10.1012ZM4.29093 4.0808C3.75511 4.0808 3.53838 4.29753 3.53838 4.83335V8.44559C3.53838 8.98141 3.75511 9.19814 4.29093 9.19814H5.49501C6.03083 9.19814 6.24756 8.98141 6.24756 8.44559V4.83335C6.24756 4.29753 6.03083 4.0808 5.49501 4.0808H4.29093Z" fill="#9E9E9E"/>
<path d="M12.1174 12.5093H10.9134C9.87785 12.5093 9.25775 11.8892 9.25775 10.8537V7.24149C9.25775 6.20598 9.87785 5.58588 10.9134 5.58588H12.1174C13.153 5.58588 13.7731 6.20598 13.7731 7.24149V10.8537C13.7731 11.8892 13.153 12.5093 12.1174 12.5093ZM10.9134 6.48894C10.3775 6.48894 10.1608 6.70567 10.1608 7.24149V10.8537C10.1608 11.3896 10.3775 11.6063 10.9134 11.6063H12.1174C12.6533 11.6063 12.87 11.3896 12.87 10.8537V7.24149C12.87 6.70567 12.6533 6.48894 12.1174 6.48894H10.9134Z" fill="#9E9E9E"/>
</svg>
