<svg width="20" height="15" viewBox="0 0 20 15" fill="none" xmlns="http://www.w3.org/2000/svg">
<path d="M16.588 1.26686C18.7977 4.53576 19.8889 8.22299 19.481 12.4678C19.4793 12.4858 19.47 12.5023 19.4553 12.5131C17.782 13.7494 16.1608 14.4997 14.5623 14.9973C14.5498 15.0011 14.5365 15.0009 14.5242 14.9967C14.5119 14.9925 14.5012 14.9845 14.4936 14.9739C14.1243 14.4569 13.7887 13.9118 13.4948 13.3394C13.4779 13.3057 13.4933 13.2651 13.528 13.2518C14.0609 13.0498 14.5677 12.8077 15.0551 12.521C15.0935 12.4983 15.0959 12.443 15.0605 12.4164C14.957 12.3391 14.8546 12.2579 14.7565 12.1767C14.7381 12.1617 14.7134 12.1588 14.6926 12.1688C11.5282 13.6392 8.06176 13.6392 4.85992 12.1688C4.83913 12.1595 4.81443 12.1627 4.79658 12.1775C4.69875 12.2587 4.59603 12.3391 4.49356 12.4164C4.4581 12.443 4.46103 12.4983 4.49968 12.521C4.98709 12.8022 5.49383 13.0498 6.026 13.2528C6.06049 13.2661 6.07687 13.3057 6.05975 13.3394C5.77215 13.9126 5.4366 14.4576 5.06046 14.9746C5.04408 14.9955 5.01718 15.0051 4.99174 14.9973C3.40085 14.4997 1.77963 13.7494 0.106313 12.5131C0.0923728 12.5023 0.0823457 12.4851 0.0808783 12.4671C-0.260045 8.79536 0.434763 5.07762 2.97115 1.26612C2.97726 1.25603 2.98655 1.24816 2.99731 1.24348C4.24533 0.66717 5.58236 0.243178 6.97981 0.00103735C7.00524 -0.0028999 7.03068 0.00891183 7.04388 0.031551C7.21655 0.339148 7.41391 0.733611 7.54744 1.05597C9.02046 0.829581 10.5165 0.829581 12.0203 1.05597C12.1538 0.740501 12.3443 0.339148 12.5163 0.031551C12.5224 0.0203199 12.5319 0.0113222 12.5434 0.00584245C12.5549 0.000362649 12.5678 -0.00131908 12.5803 0.00103735C13.9785 0.243916 15.3156 0.667908 16.5626 1.24348C16.5736 1.24816 16.5826 1.25603 16.588 1.26686ZM8.2963 8.24809C8.31171 7.16264 7.52519 6.26445 6.53788 6.26445C5.55864 6.26445 4.7797 7.15476 4.7797 8.24809C4.7797 9.34116 5.57405 10.2315 6.53788 10.2315C7.51736 10.2315 8.2963 9.34116 8.2963 8.24809ZM14.7973 8.24809C14.8127 7.16264 14.0262 6.26445 13.0391 6.26445C12.0597 6.26445 11.2807 7.15476 11.2807 8.24809C11.2807 9.34116 12.0751 10.2315 13.0391 10.2315C14.0262 10.2315 14.7973 9.34116 14.7973 8.24809Z" fill="white"/>
</svg>
