<svg xmlns="http://www.w3.org/2000/svg" width="384" height="134" viewBox="0 0 384 134" fill="none">
  <path d="M383 108.169L372.593 119.819C372.086 120.387 371.155 120.202 370.904 119.483L358.118 82.8862C357.83 82.0622 356.699 81.9767 356.29 82.7482L349.953 94.7208C349.78 95.0482 349.439 95.253 349.069 95.253H342.726C342.283 95.253 341.893 95.5437 341.767 95.9676L334.621 119.968C334.446 120.555 333.789 120.849 333.235 120.587L324.377 116.403C324.156 116.299 323.98 116.117 323.884 115.892L316.055 97.5786C315.698 96.745 314.506 96.7778 314.195 97.6297L301.599 132.245C301.325 132.995 300.326 133.138 299.853 132.495L270.103 92.029C269.614 91.3636 268.575 91.5445 268.339 92.336L261.946 113.806C261.687 114.677 260.496 114.779 260.092 113.965L248.649 90.9069C248.496 90.5976 248.194 90.3894 247.85 90.3561L232.37 88.8564C231.984 88.819 231.655 88.5623 231.525 88.1975L220.507 57.361C220.334 56.8761 219.82 56.602 219.321 56.7278L208.284 59.5078C207.776 59.6358 207.255 59.3498 207.091 58.8522L201.75 42.7087C201.467 41.8552 200.29 41.7788 199.9 42.5886L180.122 83.6141C179.752 84.3826 178.651 84.3641 178.307 83.5834L173.44 72.5513C173.136 71.8629 172.21 71.7438 171.742 72.3331L166.155 79.3692C165.677 79.9715 164.727 79.8311 164.443 79.1164L151.401 46.2662C151.178 45.7042 150.511 45.4672 149.983 45.7626L139.671 51.5352C139.521 51.6188 139.353 51.6627 139.182 51.6627H131.309C130.824 51.6627 130.408 51.3143 130.324 50.8364L125.488 23.4286C125.404 22.9508 124.989 22.6024 124.503 22.6024H111.932C111.516 22.6024 111.144 22.8591 110.997 23.2474L98.2166 56.9022C97.8744 57.8035 96.5807 57.7463 96.3193 56.8184L83.2201 10.3249C83.1111 9.9381 82.7812 9.65412 82.3825 9.6039L57.6951 6.49466C57.5042 6.47062 57.3243 6.39204 57.177 6.26834L50.5974 0.743905C50.1303 0.351733 49.424 0.465402 49.1036 0.984314L41.3155 13.5954C41.0059 14.0968 40.332 14.2231 39.8618 13.8678L35.212 10.3541C34.7394 9.99701 34.0618 10.1266 33.7544 10.6329L18.3477 36.0073C18.0043 36.5728 17.2163 36.655 16.7637 36.1726L1.00002 19.3735" stroke="#FF0420" stroke-opacity="0.25" stroke-linecap="round"/>
</svg>