<svg
            xmlns="http://www.w3.org/2000/svg"
            width="384"
            height="161"
            viewBox="0 0 384 161"
            fill="none"
          >
            <path
              d="M1 129.964L11.3361 143.867C11.8291 144.53 12.8681 144.343 13.0989 143.549L25.8702 99.6269C26.1309 98.7304 27.3692 98.6485 27.7456 99.503L34.0659 113.849C34.2257 114.212 34.5847 114.446 34.981 114.446H41.2377C41.6973 114.446 42.0978 114.759 42.2083 115.205L49.3942 144.202C49.5535 144.845 50.2824 145.158 50.8584 144.831L59.6426 139.846C59.8515 139.728 60.0107 139.538 60.0912 139.312L67.9211 117.308C68.2445 116.399 69.5406 116.43 69.8203 117.353L82.3939 158.866C82.6442 159.692 83.7534 159.835 84.204 159.098L113.839 110.667C114.302 109.909 115.449 110.086 115.663 110.948L122.046 136.707C122.278 137.644 123.572 137.741 123.941 136.848L135.373 109.17C135.511 108.835 135.821 108.6 136.181 108.559L151.607 106.763C152.004 106.717 152.336 106.438 152.45 106.055L163.512 68.8547C163.67 68.3235 164.23 68.0221 164.76 68.1826L175.636 71.474C176.174 71.6369 176.74 71.3244 176.89 70.7824L182.239 51.3541C182.494 50.4309 183.775 50.3585 184.131 51.2472L203.849 100.391C204.19 101.241 205.4 101.223 205.716 100.363L210.546 87.207C210.829 86.4372 211.867 86.3161 212.319 87.0003L217.783 95.2676C218.243 95.9645 219.304 95.8231 219.566 95.03L232.607 55.565C232.814 54.9363 233.565 54.6795 234.114 55.049L244.304 61.9021C244.469 62.013 244.663 62.0723 244.862 62.0723H252.666C253.162 62.0723 253.584 61.7085 253.656 61.2176L258.532 28.0113C258.604 27.5204 259.025 27.1566 259.522 27.1566H272.026C272.462 27.1566 272.848 27.4394 272.979 27.8553L285.763 68.3019C286.069 69.2709 287.458 69.2183 287.69 68.2288L300.805 12.2977C300.899 11.8996 301.225 11.5984 301.629 11.5373L326.27 7.80859C326.482 7.77641 326.679 7.67656 326.83 7.52384L333.319 0.978378C333.797 0.495638 334.608 0.620697 334.918 1.22524L342.666 16.298C342.966 16.8831 343.74 17.0234 344.227 16.5813L348.699 12.5214C349.188 12.0773 349.966 12.2211 350.263 12.8107L365.625 43.2081C365.955 43.8623 366.854 43.9503 367.305 43.3726L383 23.2771"
              stroke="#22C761"
              stroke-opacity="0.25"
              stroke-linecap="round"
            />
          </svg>