<svg width="18" height="17" viewBox="0 0 18 17" fill="none" xmlns="http://www.w3.org/2000/svg">
<path d="M0.884094 15.8829C0.884094 16.1487 1.10256 16.3635 1.37286 16.3635H3.45012C3.72042 16.3635 3.93888 16.1487 3.93888 15.8829V7.33333L0.884094 4.32935V15.8829ZM5.12747 8.50216V15.8829C5.12747 16.1487 5.34594 16.3635 5.61624 16.3635H7.6935C7.9638 16.3635 8.18226 16.1487 8.18226 15.8829V10.8216C7.66387 10.7561 7.18622 10.5303 6.81224 10.1625L5.12747 8.50216ZM13.6179 12.7624V15.8829C13.6179 16.1487 13.8364 16.3635 14.1067 16.3635H16.184C16.4543 16.3635 16.6727 16.1487 16.6727 15.8829V12.9153C15.747 12.8716 14.8213 12.8315 13.8956 12.7878C13.8327 12.7842 13.7327 12.7769 13.6179 12.7624ZM12.3812 9.53626L11.5851 8.7534L10.1521 10.1625C9.92627 10.3847 9.65967 10.5558 9.37085 10.6723V15.8829C9.37085 16.1487 9.58932 16.3635 9.85962 16.3635H11.9369C12.2072 16.3635 12.4256 16.1487 12.4256 15.8829V12.1761C12.2738 12.0196 12.1479 11.8411 12.0517 11.6372C11.8924 11.2877 11.611 10.4065 12.3812 9.53626Z" fill="white"/>
<path d="M17.9983 10.8617L17.9464 9.80211C17.9131 9.09571 17.8798 8.39296 17.8464 7.68657C17.839 7.52272 17.8094 7.31153 17.6391 7.14767C17.5947 7.10398 17.5391 7.06028 17.4762 7.02751C17.3836 6.97654 17.291 6.95469 17.2022 6.95469C16.9874 6.95469 16.8467 7.09305 16.7467 7.19137L16.5134 7.42076L15.9506 7.97422C15.9321 7.99243 15.9136 8.007 15.8951 8.0252L12.2627 4.45319C12.0812 4.27477 11.8405 4.17645 11.5888 4.17645C11.337 4.17645 11.0926 4.27477 10.9149 4.45319L8.48953 6.83817L1.81343 0.276731C1.632 0.0983124 1.39502 0 1.13953 0C0.884037 0 0.643357 0.0983124 0.461921 0.276731L0.280485 0.45515C-0.093495 0.822911 -0.093495 1.41643 0.280485 1.78419L7.80822 9.18674C7.98966 9.36516 8.22664 9.46347 8.48213 9.46347C8.73762 9.46347 8.9783 9.36516 9.15974 9.18674L11.5851 6.80176L14.3621 9.53266C14.1659 9.722 13.9733 9.91134 13.7808 10.1043L13.5031 10.3774C13.392 10.4867 13.1624 10.7124 13.3291 11.0583C13.3624 11.1275 13.4031 11.1858 13.4513 11.2331C13.6105 11.3897 13.8141 11.4006 13.9585 11.4042C15.062 11.4552 16.1691 11.5062 17.2725 11.5572H17.3355C17.5539 11.5572 17.7243 11.4989 17.839 11.3787C17.9575 11.2586 18.0094 11.0874 17.9983 10.8617Z" fill="#C21500"/>
</svg>
