<svg width="28" height="15" viewBox="0 0 28 15" fill="none" xmlns="http://www.w3.org/2000/svg">
<path d="M15.8549 7.5C15.8549 11.6391 12.4402 15 8.21004 15C3.97989 15 0.565186 11.6391 0.565186 7.5C0.565186 3.36093 3.97989 0 8.21004 0C12.4402 0 15.8549 3.36093 15.8549 7.5ZM24.2303 7.5C24.2303 11.3907 22.5144 14.553 20.4078 14.553C18.3013 14.553 16.5854 11.3907 16.5854 7.5C16.5854 3.60927 18.3013 0.447017 20.4078 0.447017C22.5144 0.447017 24.2303 3.59271 24.2303 7.5ZM27.662 7.5C27.662 10.9934 27.0674 13.8245 26.3199 13.8245C25.5724 13.8245 24.9778 10.9934 24.9778 7.5C24.9778 4.00662 25.5724 1.17549 26.3199 1.17549C27.0674 1.17549 27.662 4.00662 27.662 7.5Z" fill="white"/>
</svg>
