<?xml version="1.0" encoding="utf-8"?>
<!-- Generator: Adobe Illustrator 26.0.3, SVG Export Plug-In . SVG Version: 6.00 Build 0)  -->
<svg version="1.0" id="katman_1" xmlns="http://www.w3.org/2000/svg" xmlns:xlink="http://www.w3.org/1999/xlink" x="0px" y="0px"
	 viewBox="0 0 600 450" style="enable-background:new 0 0 600 450;" xml:space="preserve">
<style type="text/css">
	.st0{fill:#010202;}
</style>
<g>
	<path class="st0" d="M399.5,76.9l-68.9,102.3c-4.8,7,4.4,15.4,11,9.5l67.8-59c1.8-1.5,4.4-0.4,4.4,2.2v184.4c0,2.6-3.3,3.7-4.8,1.8
		L203.8,72.5c-6.6-8.1-16.1-12.5-26.8-12.5h-7.3c-19.1,0-34.8,15.8-34.8,35.2v259.5c0,19.4,15.8,35.2,35.2,35.2
		c12.1,0,23.5-6.2,30.1-16.9L269,270.8c4.8-7-4.4-15.4-11-9.5l-67.8,58.6c-1.8,1.5-4.4,0.4-4.4-2.2v-184c0-2.6,3.3-3.7,4.8-1.8
		l205.3,245.6c6.6,8.1,16.5,12.5,26.8,12.5h7.3c19.4,0,35.2-15.8,35.2-35.2V95.2c-0.4-19.4-16.1-35.2-35.6-35.2
		C417.5,60.1,406.1,66.3,399.5,76.9z"/>
</g>
</svg>
