<?xml version="1.0" standalone="no"?>
<!DOCTYPE svg PUBLIC "-//W3C//DTD SVG 20010904//EN"
 "http://www.w3.org/TR/2001/REC-SVG-20010904/DTD/svg10.dtd">
<svg version="1.0" xmlns="http://www.w3.org/2000/svg"
 width="1024.000000pt" height="1024.000000pt" viewBox="0 0 1024.000000 1024.000000"
 preserveAspectRatio="xMidYMid meet">

<g transform="translate(0.000000,1024.000000) scale(0.100000,-0.100000)"
fill="#000000" stroke="none">
<path d="M0 5120 l0 -5120 5120 0 5120 0 0 5120 0 5120 -5120 0 -5120 0 0
-5120z m4152 2240 c2 -6 47 -17 100 -24 53 -8 101 -17 106 -20 5 -3 38 -12 73
-20 95 -22 235 -71 324 -115 22 -10 65 -31 95 -45 72 -33 160 -83 180 -101 9
-8 19 -15 23 -15 3 0 26 -14 49 -30 24 -17 54 -38 68 -48 103 -69 341 -297
435 -416 41 -52 165 -234 165 -243 0 -3 9 -17 19 -32 22 -30 89 -160 107 -206
7 -16 26 -65 43 -108 40 -100 41 -153 4 -199 -15 -18 -28 -34 -29 -36 -4 -7
-113 -45 -164 -57 -87 -21 -140 -36 -206 -56 -33 -11 -70 -19 -81 -19 -12 0
-45 -8 -75 -19 -29 -10 -86 -26 -126 -36 l-73 -17 -57 29 c-55 28 -57 30 -119
151 -68 135 -145 249 -220 327 -57 60 -148 141 -194 173 -83 57 -143 93 -165
98 -13 3 -28 12 -35 20 -6 8 -18 14 -27 14 -8 0 -33 8 -56 19 -61 28 -171 59
-256 72 -333 51 -648 -19 -935 -209 -76 -51 -248 -217 -292 -283 -70 -103
-104 -158 -128 -209 -57 -118 -65 -138 -65 -154 0 -9 -7 -33 -15 -53 -20 -47
-55 -279 -55 -362 0 -87 35 -295 65 -386 65 -200 174 -373 332 -528 44 -43 91
-86 105 -95 15 -9 47 -32 73 -49 25 -18 50 -33 55 -33 5 0 15 -6 22 -13 7 -7
40 -25 73 -41 189 -89 275 -109 521 -125 80 -5 155 -15 175 -24 37 -15 68 -51
133 -150 64 -98 187 -246 295 -355 123 -124 145 -162 135 -227 -8 -54 -56
-111 -102 -120 -15 -3 -56 -15 -92 -26 -36 -10 -81 -19 -100 -19 -19 -1 -64
-7 -100 -15 -187 -41 -641 -20 -830 40 -25 7 -64 17 -87 20 -24 4 -45 10 -48
15 -3 4 -29 14 -57 20 -29 7 -62 19 -73 26 -11 8 -26 14 -33 14 -8 0 -82 34
-165 75 -139 69 -288 163 -428 271 -55 42 -279 270 -335 340 -40 50 -152 216
-186 274 -68 118 -156 315 -179 400 -6 19 -16 51 -23 70 -15 38 -45 173 -72
315 -21 111 -30 450 -15 550 6 39 17 116 26 173 8 57 19 111 24 120 4 9 11 35
15 57 8 49 42 156 67 211 11 23 19 47 19 54 0 6 7 24 15 38 8 15 19 38 25 52
5 14 14 32 18 40 5 8 17 31 26 50 46 91 81 156 88 165 5 6 23 33 40 60 18 28
38 54 45 58 7 4 13 13 13 18 0 37 272 323 410 432 102 82 92 74 160 118 155
101 263 157 420 217 148 56 167 62 236 77 34 8 72 19 85 24 13 6 62 15 109 21
47 5 87 15 88 20 5 14 589 14 594 0z m2390 -1 c2 -5 44 -16 93 -23 101 -15
212 -41 265 -62 19 -7 54 -18 77 -24 23 -6 45 -15 48 -20 3 -6 13 -10 22 -10
9 0 46 -14 82 -31 36 -18 84 -40 106 -50 61 -28 167 -88 185 -104 9 -8 19 -15
23 -15 3 0 26 -14 49 -30 24 -17 54 -38 68 -48 103 -69 341 -297 436 -417 78
-97 191 -277 246 -390 114 -231 157 -370 214 -690 22 -120 25 -512 5 -582 -6
-23 -16 -79 -22 -125 -10 -79 -17 -107 -60 -243 -10 -33 -19 -67 -19 -75 0 -8
-9 -32 -20 -53 -11 -20 -20 -41 -20 -46 0 -31 -132 -290 -207 -407 -103 -161
-326 -404 -478 -522 -44 -34 -87 -68 -95 -75 -15 -13 -98 -67 -160 -104 -33
-20 -222 -115 -265 -134 -179 -76 -297 -109 -560 -156 -125 -22 -482 -25 -590
-5 -38 7 -104 19 -145 27 -121 22 -213 45 -245 59 -16 8 -46 17 -65 21 -19 4
-44 14 -55 21 -11 8 -25 14 -32 14 -12 0 -228 104 -316 152 -37 20 -201 134
-278 194 -53 41 -289 281 -340 346 -124 158 -246 371 -322 563 -50 126 -52
172 -9 228 29 38 41 45 137 72 33 9 80 23 105 30 25 7 63 17 85 21 22 3 48 11
57 15 9 5 45 16 80 23 35 8 105 26 157 40 113 31 135 32 189 6 45 -22 69 -53
122 -165 42 -88 106 -187 171 -265 56 -67 165 -174 203 -199 13 -9 45 -31 71
-48 25 -18 50 -33 55 -33 5 0 15 -6 22 -13 7 -7 40 -25 73 -41 191 -90 289
-113 515 -123 157 -6 304 11 410 47 187 65 319 135 437 232 39 32 106 98 148
146 42 48 82 94 89 102 24 26 136 234 136 251 0 9 6 22 14 28 8 7 18 31 21 54
4 23 13 53 20 67 35 68 55 378 35 520 -17 114 -44 227 -72 293 -71 168 -170
317 -295 442 -86 85 -102 98 -221 178 -60 39 -62 40 -102 57 -14 5 -32 14 -40
19 -29 17 -116 50 -185 70 -94 27 -194 42 -346 50 -153 8 -176 20 -245 124
-126 187 -169 240 -324 397 -53 53 -106 112 -118 132 -41 66 -24 151 39 196
31 22 132 50 249 68 52 8 97 19 98 24 5 14 589 13 594 -1z"/>
</g>
</svg>
