<svg xmlns="http://www.w3.org/2000/svg" width="18" height="20" viewBox="0 0 18 20" fill="none">
  <path d="M7.91465 18.1811L13.2253 19.9999L17.8749 15.3506L12.5275 13.5683L7.91465 18.1811ZM10.306 17.8971C10.0247 18.1784 9.56635 18.3002 9.28189 18.169C8.99772 18.0378 8.99508 17.7036 9.27656 17.4223C9.55785 17.141 10.0162 17.0192 10.3007 17.1504C10.5851 17.2816 10.5873 17.6158 10.306 17.8971ZM12.021 18.4979C11.7397 18.7791 11.2813 18.9009 10.9968 18.7697C10.7127 18.6385 10.71 18.3043 10.9915 18.023C11.273 17.7417 11.7312 17.6199 12.0156 17.7512C12.2998 17.8824 12.3022 18.2166 12.021 18.4979ZM15.4787 15.8081C15.76 15.5268 16.2183 15.405 16.5028 15.5362C16.787 15.6674 16.7896 16.0016 16.5084 16.2829C16.2271 16.5642 15.7687 16.686 15.4843 16.5548C15.1998 16.4236 15.1974 16.0894 15.4787 15.8081ZM13.7688 15.246C14.0501 14.9647 14.5085 14.8429 14.7929 14.9741C15.0771 15.1054 15.0797 15.4396 14.7982 15.7208C14.517 16.0021 14.0586 16.1239 13.7741 15.9927C13.49 15.8615 13.4875 15.5273 13.7688 15.246ZM13.7256 18.3132C14.0097 18.4444 14.0124 18.7786 13.7309 19.0599C13.4496 19.3412 12.9912 19.463 12.7068 19.3318C12.4223 19.2006 12.42 18.8664 12.7012 18.5851C12.9827 18.3041 13.4411 18.1823 13.7256 18.3132ZM13.0779 14.3732C13.3621 14.5044 13.3647 14.8386 13.0833 15.1199C12.802 15.4012 12.3436 15.523 12.0591 15.3917C11.775 15.2605 11.7723 14.9263 12.0538 14.645C12.3351 14.3638 12.7935 14.2422 13.0779 14.3732ZM17.9611 14.7081L16.2053 9.44043L10.9377 7.68438L12.6935 12.9518L17.9611 14.7081ZM14.0496 10.5776C14.2463 10.3809 14.6416 10.457 14.9326 10.748C15.2235 11.039 15.2999 11.4343 15.1029 11.631C14.9062 11.8277 14.5109 11.7516 14.22 11.4606C13.929 11.1697 13.8527 10.7743 14.0496 10.5776ZM5.36023 0L0.393621 2.48316L5.36018 4.96632L10.3265 2.48316L5.36023 0ZM5.36023 2.98699C4.94895 2.98699 4.61523 2.76129 4.61523 2.48316C4.61523 2.20479 4.94872 1.97934 5.36023 1.97934C5.77173 1.97934 6.10523 2.20503 6.10523 2.48316C6.10494 2.76153 5.7715 2.98699 5.36023 2.98699ZM6.63685 9.5209C6.87415 9.43344 7.07252 9.57187 7.14115 9.83721L10.1156 6.86278L10.7199 7.06431V2.99836L5.67843 5.51923V11.2999L6.18806 10.7903C6.13609 10.6982 6.10494 10.5789 6.10494 10.4375C6.10494 10.0395 6.34324 9.62917 6.63685 9.5209ZM9.88096 4.09979C10.1748 3.99152 10.4128 4.22618 10.4128 4.62391C10.4128 5.02164 10.1748 5.43196 9.88096 5.54023C9.58712 5.6485 9.3491 5.41384 9.3491 5.01611C9.34906 4.61834 9.58712 4.20806 9.88096 4.09979ZM8.36533 6.70208C8.65918 6.59381 8.89719 6.82847 8.89719 7.22619C8.89719 7.62392 8.65918 8.03425 8.36533 8.14252C8.07149 8.25079 7.83348 8.01613 7.83348 7.6184C7.83348 7.22067 8.07172 6.81034 8.36533 6.70208ZM6.10494 6.6158C6.10494 6.21807 6.34296 5.80774 6.6368 5.69948C6.93065 5.59121 7.16866 5.82587 7.16866 6.2236C7.16866 6.62137 6.93065 7.03165 6.6368 7.13992C6.343 7.24819 6.10494 7.01357 6.10494 6.6158ZM0 9.57333L4.97043 12.0077L5.04169 11.9364V5.51923L0 2.99836V9.57333ZM4.071 9.5209C4.36485 9.62917 4.60286 10.0395 4.60286 10.4372C4.60286 10.835 4.36485 11.0696 4.071 10.9613C3.77715 10.8531 3.53914 10.4427 3.53914 10.045C3.53914 9.64729 3.77744 9.41263 4.071 9.5209ZM2.52087 6.6216C2.81472 6.72987 3.05273 7.14015 3.05273 7.53793C3.05273 7.93566 2.81472 8.17032 2.52087 8.06205C2.22702 7.95378 1.98901 7.54345 1.98901 7.14572C1.98896 6.748 2.22726 6.51334 2.52087 6.6216ZM0.92548 4.09979C1.21933 4.20806 1.45734 4.61834 1.45734 5.01611C1.45734 5.41384 1.21933 5.6485 0.92548 5.54023C0.631634 5.43196 0.393621 5.02168 0.393621 4.62391C0.393621 4.22618 0.631634 3.99152 0.92548 4.09979ZM10.2949 7.77042L5.64534 12.4195L7.46444 17.7307L12.0773 13.1174L10.2949 7.77042ZM8.30927 15.9792C8.02797 16.2604 7.69354 16.258 7.56257 15.9736C7.43159 15.6892 7.55313 15.2308 7.83442 14.9495C8.11571 14.6682 8.45015 14.6706 8.58112 14.9548C8.71209 15.239 8.59056 15.6979 8.30927 15.9792ZM9.86062 10.467C9.57933 10.7482 9.24489 10.7458 9.11392 10.4616C8.98271 10.1775 9.10448 9.71879 9.38578 9.4375C9.66707 9.15621 10.0015 9.15866 10.1325 9.44284C10.2637 9.72724 10.1419 10.1857 9.86062 10.467Z" fill="white"/>
</svg>