<?xml version="1.0" standalone="no"?>
<!DOCTYPE svg PUBLIC "-//W3C//DTD SVG 20010904//EN"
 "http://www.w3.org/TR/2001/REC-SVG-20010904/DTD/svg10.dtd">
<svg version="1.0" xmlns="http://www.w3.org/2000/svg"
 width="1024.000000pt" height="1024.000000pt" viewBox="0 0 1024.000000 1024.000000"
 preserveAspectRatio="xMidYMid meet">

<g transform="translate(0.000000,1024.000000) scale(0.100000,-0.100000)"
fill="#000000" stroke="none">
<path d="M3175 8398 c-28 -4 -76 -10 -107 -14 -45 -5 -61 -12 -73 -30 -9 -13
-24 -24 -35 -24 -11 0 -20 -6 -20 -14 0 -7 -13 -30 -30 -51 -16 -21 -30 -44
-30 -52 0 -8 -11 -24 -23 -36 -13 -12 -29 -37 -35 -56 -7 -19 -21 -40 -31 -48
-11 -7 -22 -26 -26 -42 -3 -16 -15 -37 -25 -46 -11 -10 -24 -33 -30 -51 -7
-19 -20 -38 -29 -44 -10 -5 -21 -22 -24 -39 -3 -16 -18 -41 -32 -56 -14 -16
-25 -33 -25 -40 0 -7 -10 -25 -22 -40 -23 -28 -47 -70 -87 -151 -11 -22 -29
-49 -41 -59 -11 -10 -20 -26 -20 -35 0 -10 -13 -34 -30 -55 -16 -21 -30 -44
-30 -51 0 -7 -10 -25 -23 -41 -12 -15 -30 -44 -40 -63 -10 -19 -33 -60 -52
-90 -19 -30 -41 -68 -49 -85 -8 -16 -24 -42 -35 -56 -11 -15 -25 -37 -31 -50
-6 -13 -26 -49 -45 -79 -19 -30 -46 -79 -61 -108 -15 -29 -30 -55 -35 -58 -5
-2 -18 -24 -29 -47 -11 -23 -34 -64 -50 -92 -16 -27 -39 -69 -50 -92 -11 -23
-25 -45 -30 -48 -5 -3 -19 -25 -30 -48 -12 -23 -34 -64 -50 -92 -16 -27 -41
-72 -56 -100 -15 -27 -30 -52 -34 -55 -4 -3 -17 -25 -29 -50 -42 -85 -66 -128
-82 -146 -9 -11 -20 -30 -24 -44 -4 -14 -14 -32 -22 -41 -15 -18 -50 -80 -82
-148 -20 -40 -21 -59 -19 -209 l3 -165 40 -15 c34 -12 188 -15 960 -21 724 -6
927 -10 955 -20 46 -18 92 -62 132 -128 18 -30 48 -77 66 -106 17 -28 32 -55
32 -60 0 -5 11 -22 25 -39 14 -16 25 -36 25 -43 0 -7 11 -27 25 -43 13 -16 29
-41 35 -56 13 -35 26 -27 35 21 3 21 15 58 26 82 10 23 24 73 30 110 6 36 19
86 29 111 10 25 23 76 29 114 7 38 18 81 26 96 7 14 20 62 29 106 8 43 22 95
30 115 8 19 20 67 27 105 6 38 18 85 26 104 8 19 21 73 29 119 9 47 21 96 29
110 7 14 18 59 24 98 6 40 19 94 30 120 10 27 22 75 26 108 3 33 15 79 25 103
11 23 24 77 30 119 5 42 17 90 26 107 8 17 20 65 25 106 6 41 19 95 30 119 11
24 23 79 28 123 5 43 16 90 25 104 10 14 21 59 25 100 7 55 16 85 35 112 14
21 26 43 26 49 0 6 16 20 35 32 19 11 35 25 35 30 0 17 82 33 144 29 48 -4 63
-9 80 -30 12 -14 29 -28 39 -31 9 -4 22 -18 27 -33 6 -14 20 -34 33 -44 20
-17 22 -30 28 -157 5 -90 13 -154 24 -182 11 -30 19 -100 25 -211 6 -102 15
-182 25 -210 9 -25 20 -110 26 -200 5 -85 17 -179 25 -208 8 -30 21 -129 29
-221 8 -91 21 -193 29 -226 8 -33 20 -123 26 -200 7 -77 20 -180 30 -230 10
-49 21 -136 25 -191 3 -56 13 -131 21 -165 8 -35 23 -140 33 -234 11 -93 24
-182 29 -196 6 -14 17 -97 27 -184 9 -87 20 -179 26 -205 9 -44 46 -117 54
-108 2 2 11 45 19 95 8 51 22 105 30 121 8 16 20 59 26 96 6 36 19 88 29 114
10 26 24 78 30 116 7 38 18 81 26 96 7 14 20 62 29 106 8 43 21 95 29 114 8
19 20 68 26 108 6 41 18 86 26 101 7 15 20 66 29 114 8 47 20 96 26 107 6 11
18 60 26 108 9 48 21 99 29 115 8 15 19 62 25 105 7 42 19 93 27 112 8 19 21
73 29 119 7 46 20 93 27 105 8 12 17 35 21 53 7 32 60 93 99 115 31 17 175 15
208 -3 27 -14 109 -111 109 -127 0 -5 13 -26 29 -46 16 -20 33 -51 36 -67 4
-17 13 -33 20 -35 7 -3 21 -24 30 -47 9 -23 25 -50 36 -60 10 -10 19 -26 19
-36 0 -10 11 -30 25 -46 14 -15 29 -40 32 -56 3 -17 14 -34 24 -39 9 -6 23
-27 29 -47 7 -21 20 -47 30 -58 9 -11 22 -33 29 -50 7 -16 28 -43 47 -58 l33
-28 703 10 c760 11 990 18 1034 30 21 5 30 16 37 42 5 19 17 43 28 55 21 23
18 43 -13 83 -10 13 -18 40 -18 62 0 29 -5 39 -21 44 -30 10 -61 44 -81 87 -9
21 -24 38 -33 38 -8 0 -15 3 -15 8 0 4 -22 31 -50 61 -27 30 -50 59 -50 66 0
6 -12 18 -27 26 -16 8 -59 35 -98 60 -38 25 -113 70 -165 99 -52 30 -124 73
-160 96 -36 22 -117 68 -180 101 -64 34 -133 73 -154 87 -21 14 -44 26 -51 26
-7 0 -48 23 -91 51 -42 28 -109 68 -148 89 -39 21 -95 53 -124 71 -106 68
-138 87 -162 94 -14 4 -42 20 -63 37 -20 16 -54 36 -74 45 -20 8 -60 30 -89
48 -53 34 -136 81 -254 142 -36 19 -81 45 -100 57 -55 36 -93 60 -115 72 -11
6 -60 35 -110 63 -49 29 -104 59 -123 67 -18 7 -55 28 -80 45 -26 18 -81 50
-122 72 -41 22 -93 52 -115 67 -22 15 -51 31 -65 35 -14 4 -50 24 -80 45 -63
42 -193 117 -295 170 -38 21 -101 56 -139 79 -38 24 -84 51 -102 62 -19 10
-51 29 -71 40 -21 12 -56 34 -78 49 -53 36 -167 99 -291 159 -55 28 -107 57
-114 67 -8 9 -37 27 -65 40 -27 13 -68 35 -90 49 -22 14 -49 29 -60 34 -88 39
-117 49 -155 56 -25 4 -47 11 -50 15 -14 19 -156 42 -345 55 -302 20 -315 21
-370 13z"/>
<path d="M4495 6178 c-3 -18 -9 -61 -14 -95 -5 -34 -16 -72 -25 -85 -8 -13
-20 -54 -27 -93 -6 -38 -20 -91 -30 -116 -10 -25 -23 -75 -29 -110 -6 -35 -19
-84 -29 -109 -10 -25 -22 -67 -25 -95 -4 -27 -18 -82 -32 -122 -13 -39 -24
-83 -24 -98 0 -15 -11 -59 -24 -98 -13 -40 -29 -103 -36 -141 -6 -38 -17 -81
-24 -95 -8 -14 -19 -60 -26 -101 -6 -41 -18 -88 -26 -105 -8 -16 -21 -66 -29
-110 -7 -44 -21 -96 -29 -117 -9 -20 -21 -68 -27 -108 -14 -91 -59 -191 -107
-234 -28 -27 -49 -36 -89 -42 -65 -8 -130 3 -153 26 -10 10 -28 23 -39 30 -12
6 -21 17 -21 24 0 7 -9 21 -20 31 -12 10 -30 37 -41 59 -36 73 -58 111 -79
134 -11 13 -23 36 -26 50 -4 15 -15 36 -25 47 -10 11 -25 37 -33 57 -9 20 -20
39 -26 43 -6 4 -17 22 -25 40 -7 19 -23 44 -34 57 -12 12 -21 29 -21 39 0 9
-7 23 -17 30 -9 8 -25 33 -35 56 -10 23 -33 56 -51 74 l-32 32 -832 -6 c-545
-4 -838 -10 -850 -17 -10 -5 -30 -14 -46 -20 l-27 -10 0 -162 c1 -152 2 -166
25 -208 13 -25 31 -61 40 -80 10 -19 28 -48 41 -63 13 -16 24 -36 24 -46 0
-10 11 -28 24 -40 13 -13 27 -35 31 -49 4 -15 13 -34 21 -43 16 -17 49 -77 82
-144 11 -22 27 -46 36 -54 9 -7 21 -31 26 -52 6 -22 15 -39 21 -39 6 0 21 -24
35 -52 35 -72 70 -136 84 -153 13 -16 50 -81 78 -141 11 -23 26 -45 32 -49 6
-4 21 -26 31 -49 11 -22 33 -63 49 -91 16 -27 38 -69 49 -91 12 -23 27 -47 35
-53 8 -7 23 -32 32 -57 9 -24 20 -44 24 -44 4 0 17 -22 29 -49 11 -28 25 -53
31 -56 5 -3 19 -25 30 -48 43 -86 65 -125 81 -143 9 -11 20 -30 24 -44 4 -14
15 -34 25 -45 10 -11 25 -36 34 -55 19 -41 41 -81 74 -132 32 -50 56 -93 86
-155 14 -28 30 -54 35 -57 6 -4 20 -26 31 -49 11 -23 34 -64 50 -92 16 -27 39
-69 50 -92 11 -23 25 -45 31 -49 6 -3 19 -25 29 -49 17 -39 123 -155 141 -155
26 0 119 -44 119 -56 0 -12 238 -14 1730 -14 1458 0 1730 2 1730 14 0 7 15 16
33 20 83 16 164 43 185 61 69 62 97 94 111 132 7 18 20 38 28 44 8 7 21 28 29
48 8 19 18 38 23 41 4 3 18 26 29 53 11 26 25 47 31 47 5 0 14 15 21 34 6 19
22 47 35 62 14 16 25 36 25 45 0 8 9 25 21 37 11 13 27 38 34 57 8 18 19 36
25 40 5 3 20 28 31 56 12 27 25 49 29 49 4 0 15 17 23 39 9 21 22 45 31 53 8
8 22 30 30 49 9 19 32 59 51 89 19 30 43 74 54 96 11 23 25 45 31 49 6 4 21
26 32 49 32 68 64 122 86 151 12 15 22 33 22 41 0 7 10 25 23 41 12 15 30 44
40 63 24 47 47 88 75 132 27 41 48 78 87 153 14 28 39 73 55 100 16 28 39 69
50 92 11 23 24 45 29 47 5 3 19 25 31 48 12 24 37 70 55 103 19 33 41 76 50
95 9 19 25 44 35 55 10 11 21 31 25 45 4 14 16 37 27 52 10 15 25 43 33 62 9
20 19 36 24 36 5 0 15 17 22 38 6 20 22 50 35 65 13 16 24 37 24 48 0 11 11
30 24 42 13 12 29 41 35 64 6 22 18 46 26 53 21 18 21 123 -1 141 -8 7 -21 24
-29 39 -11 21 -27 29 -87 43 -63 15 -163 19 -718 27 -355 6 -757 10 -895 10
-152 0 -266 4 -290 11 -59 16 -124 88 -171 189 -9 19 -27 48 -40 63 -13 16
-24 35 -24 42 0 7 -10 26 -23 42 -13 15 -29 43 -36 61 -8 17 -18 32 -23 32 -5
0 -16 16 -24 35 -18 45 -31 38 -40 -23 -3 -26 -17 -72 -29 -102 -13 -30 -26
-80 -30 -110 -4 -30 -16 -73 -26 -96 -10 -23 -23 -71 -29 -109 -6 -37 -18 -81
-26 -97 -9 -16 -22 -67 -31 -111 -8 -45 -21 -94 -28 -108 -8 -14 -20 -64 -29
-111 -8 -48 -20 -94 -26 -105 -6 -10 -19 -58 -30 -108 -28 -132 -58 -252 -80
-320 -11 -33 -24 -91 -30 -129 -6 -38 -17 -81 -25 -96 -7 -14 -20 -65 -29
-113 -8 -47 -21 -98 -30 -114 -8 -16 -19 -64 -25 -108 -6 -43 -18 -89 -25
-100 -8 -12 -20 -57 -26 -101 -7 -43 -21 -98 -31 -121 -10 -22 -21 -67 -25
-100 -10 -87 -60 -169 -131 -210 -77 -46 -126 -45 -204 3 -50 30 -64 46 -90
97 -28 55 -32 76 -40 192 -5 72 -18 171 -29 220 -10 50 -24 153 -30 230 -6 77
-17 158 -25 181 -7 22 -19 106 -25 185 -6 79 -18 173 -26 209 -9 36 -22 134
-30 219 -8 85 -21 179 -28 210 -8 31 -20 117 -26 191 -6 74 -18 164 -26 200
-8 35 -21 134 -30 219 -8 85 -21 179 -29 210 -7 31 -21 124 -30 208 -8 84 -20
165 -26 180 -6 15 -19 108 -30 206 -15 145 -22 184 -39 208 -27 37 -38 37 -45
-3z"/>
</g>
</svg>
