<svg xmlns="http://www.w3.org/2000/svg" width="13" height="20" viewBox="0 0 13 20" fill="none">
  <path d="M6.775 12.3893L4.92907 19.3221C4.86624 19.5574 4.58143 19.5981 4.49306 19.3844L3.77929 17.6583C3.72093 17.5172 3.56096 17.4753 3.44096 17.5696L2.00353 18.7C1.82079 18.8438 1.59164 18.6656 1.65482 18.4289L3.56427 11.3968L6.775 12.3893Z" fill="#DC4955"/>
  <path d="M9.10393 10.9041L11.7342 18.1838C11.8172 18.4127 11.6072 18.6101 11.4127 18.4859L9.84168 17.483C9.71325 17.401 9.55821 17.4587 9.51385 17.6051L8.98236 19.3586C8.9148 19.5816 8.62526 19.5676 8.54178 19.3373L5.92163 12.0778L9.10393 10.9041Z" fill="#DC4955"/>
  <path d="M6.77501 12.3891L6.4603 13.5706L6.43222 13.6772L5.24651 14.1262C5.11597 14.1756 4.97752 14.2009 4.83793 14.2008C4.49014 14.2008 4.16428 14.0465 3.94422 13.7768L3.17401 12.8343L3.56412 11.3969L5.94093 12.1314L6.77501 12.3891Z" fill="#DC4955"/>
  <path d="M9.78897 12.8004L8.99106 13.7768C8.771 14.0465 8.44514 14.2008 8.09735 14.2008C7.95731 14.2008 7.81997 14.1758 7.68878 14.1262L6.49845 13.6753L6.46036 13.5706L5.94099 12.1314L5.92175 12.0779L9.10379 10.9041L9.78897 12.8004Z" fill="#DC4955"/>
  <path d="M7.68316 14.124C7.75075 14.1496 7.82031 14.1704 7.89152 14.1828C8.31372 14.2567 8.72799 14.0992 8.99106 13.7768L9.78897 12.8004L9.10378 10.9041L6.72355 11.7821L6.72351 11.782L5.92175 12.0779L5.94098 12.1313L4.27399 11.6162V11.6162L3.56417 11.3969L1.6548 18.4289C1.59171 18.6655 1.82062 18.8436 2.00336 18.7001C2.15071 18.5843 2.29767 18.4685 2.44502 18.3531L3.67163 13.8349C3.70502 13.7119 3.8636 13.6781 3.94428 13.7768C4.16434 14.0465 4.4902 14.2008 4.83799 14.2008C4.97803 14.2008 5.11537 14.1758 5.24656 14.1262L6.43227 13.6772L6.46036 13.5706L6.49822 13.6752L8.5417 19.3372C8.62519 19.5677 8.91488 19.5815 8.98259 19.3588L9.19958 18.6432L7.59867 14.2071C7.57982 14.1547 7.63107 14.1043 7.68316 14.124Z" fill="#D82F3C"/>
  <path d="M12.7943 8.88414L11.6703 9.80528C11.5979 9.86465 11.5496 9.94839 11.5345 10.0408L11.3 11.4764C11.287 11.5559 11.2494 11.6293 11.1924 11.6863C11.1354 11.7433 11.062 11.781 10.9825 11.794L9.55011 12.0287C9.45755 12.0439 9.37372 12.0923 9.31439 12.165L8.39525 13.2901C8.34422 13.3526 8.27484 13.3974 8.19692 13.4183C8.119 13.4392 8.0365 13.435 7.96106 13.4065L6.6038 12.8926C6.51602 12.8593 6.41912 12.8593 6.33134 12.8926L4.97408 13.4065C4.89864 13.435 4.81613 13.4392 4.73821 13.4183C4.66029 13.3974 4.59091 13.3525 4.53988 13.2901L3.62074 12.1649C3.56142 12.0923 3.47759 12.0438 3.38503 12.0287L1.95263 11.7939C1.87312 11.7809 1.7997 11.7432 1.74274 11.6863C1.68578 11.6293 1.64815 11.5558 1.63516 11.4763L1.40071 10.0408C1.38562 9.94834 1.33732 9.86459 1.26486 9.80524L0.14086 8.8841C0.0786029 8.83308 0.0339173 8.76382 0.013095 8.68606C-0.00772719 8.60831 -0.00363705 8.52598 0.0247897 8.45068L0.538508 7.08965C0.571557 7.00209 0.571557 6.90548 0.538508 6.81792L0.0247897 5.45689C-0.00363705 5.38158 -0.00772719 5.29925 0.013095 5.2215C0.0339173 5.14375 0.0786029 5.07448 0.14086 5.02346L1.26486 4.10232C1.33729 4.04296 1.38559 3.95922 1.40071 3.8668L1.63516 2.43125C1.64814 2.35172 1.68576 2.27828 1.74273 2.22129C1.79969 2.1643 1.87311 2.12664 1.95263 2.11362L3.38503 1.8789C3.47759 1.86374 3.56142 1.81528 3.62074 1.74263L4.53988 0.617514C4.59092 0.555044 4.6603 0.510197 4.73822 0.489313C4.81613 0.468429 4.89864 0.472565 4.97408 0.501136L6.33134 1.01505C6.41912 1.04829 6.51602 1.04829 6.6038 1.01505L7.96113 0.501213C8.03657 0.472654 8.11908 0.468524 8.19699 0.489407C8.27491 0.510291 8.34429 0.555131 8.39533 0.617591L9.31447 1.74271C9.3738 1.81535 9.45763 1.86382 9.55019 1.87898L10.9826 2.1137C11.0621 2.12673 11.1355 2.16439 11.1925 2.22138C11.2494 2.27837 11.2871 2.3518 11.3001 2.43132L11.5345 3.86687C11.5496 3.95931 11.5979 4.04305 11.6704 4.1024L12.7944 5.02354C12.8566 5.07456 12.9013 5.14382 12.9221 5.22158C12.9429 5.29933 12.9389 5.38166 12.9104 5.45696L12.3967 6.81799C12.3637 6.90556 12.3637 7.00216 12.3967 7.08972L12.9104 8.45075C12.9687 8.60514 12.922 8.77954 12.7943 8.88414Z" fill="#F3D332"/>
  <path d="M6.46768 11.4912C8.96428 11.4912 10.9882 9.45976 10.9882 6.95384C10.9882 4.44792 8.96428 2.41647 6.46768 2.41647C3.97109 2.41647 1.9472 4.44792 1.9472 6.95384C1.9472 9.45976 3.97109 11.4912 6.46768 11.4912Z" fill="#F8E837"/>
  <path d="M9.75321 10.0697C8.9299 10.9449 7.76227 11.4912 6.46768 11.4912C3.97123 11.4912 1.9472 9.45989 1.9472 6.95382C1.9472 5.383 2.74281 3.99839 3.9516 3.18393C3.18601 3.99646 2.71665 5.09292 2.71665 6.29979C2.71665 8.80587 4.74067 10.8372 7.23713 10.8372C8.16854 10.8372 9.03416 10.5544 9.75321 10.0697Z" fill="#F3D332"/>
  <path d="M6.46765 11.7798C3.81596 11.7798 1.65863 9.6149 1.65863 6.95389C1.65863 4.29289 3.81596 2.12802 6.46765 2.12802C9.11934 2.12802 11.2767 4.29289 11.2767 6.95389C11.2767 9.6149 9.11934 11.7798 6.46765 11.7798ZM6.46765 2.70507C4.13416 2.70507 2.23571 4.61105 2.23571 6.95385C2.23571 9.29666 4.13416 11.2026 6.46765 11.2026C8.80114 11.2026 10.6996 9.29666 10.6996 6.95385C10.6996 4.61105 8.80114 2.70507 6.46765 2.70507Z" fill="#FAF063"/>
  <path d="M7.21981 9.11761C7.21981 9.43632 6.96143 9.6947 6.64273 9.6947C6.32402 9.6947 6.06565 9.43632 6.06565 9.11761V5.41863H5.52319C5.20448 5.41863 4.94611 5.16025 4.94611 4.84155C4.94611 4.52284 5.20448 4.26447 5.52319 4.26447H6.64273C6.96143 4.26447 7.21981 4.52284 7.21981 4.84155V9.11761Z" fill="#F3D332"/>
</svg>