<svg width="17" height="17" viewBox="0 0 17 17" fill="none" xmlns="http://www.w3.org/2000/svg">
<path d="M10.8452 3.23338C10.3466 2.72579 9.75227 2.32196 9.09661 2.04522C8.44094 1.76848 7.73692 1.62431 7.02519 1.62104C6.31347 1.61778 5.60814 1.75547 4.94996 2.02618C4.29178 2.29688 3.69379 2.69523 3.19052 3.19823C2.68724 3.70122 2.28867 4.29888 2.01781 4.95669C1.74696 5.6145 1.60918 6.31943 1.61245 7.03076C1.61572 7.74209 1.75997 8.44572 2.03687 9.10102C2.31376 9.75632 2.71781 10.3503 3.22569 10.8486C4.23926 11.8432 5.60479 12.3975 7.02519 12.391C8.4456 12.3845 9.80596 11.8176 10.8104 10.8138C11.8147 9.80998 12.3819 8.45037 12.3884 7.03076C12.3949 5.61115 11.8403 4.24639 10.8452 3.23338ZM2.05358 2.06193C3.32418 0.792354 5.03205 0.0558587 6.82795 0.00304901C8.62385 -0.0497607 10.3721 0.585105 11.7152 1.77782C13.0583 2.97054 13.8947 4.63099 14.0535 6.41964C14.2123 8.20828 13.6814 9.98999 12.5694 11.4004L17 15.8285L15.8279 17L11.3973 12.5718C9.9856 13.6791 8.20444 14.2064 6.41711 14.0462C4.62979 13.8859 2.97096 13.0502 1.77902 11.7095C0.587083 10.3688 -0.0481691 8.6241 0.00285152 6.83132C0.0538721 5.03855 0.787321 3.33276 2.05358 2.06193Z" fill="#B8B8B8"/>
</svg>
