<svg width="20" height="20" viewBox="0 0 20 20" fill="none" xmlns="http://www.w3.org/2000/svg">
<path d="M15.582 19.9997C15.4441 19.9997 15.3118 19.9449 15.2142 19.8473L11.0545 15.6879C11.0013 15.6348 10.9603 15.5707 10.9343 15.5002C10.9082 15.4296 10.8978 15.3543 10.9037 15.2793C10.9096 15.2043 10.9317 15.1315 10.9684 15.0659C11.0051 15.0003 11.0557 14.9434 11.1165 14.8992L15.5077 11.7087C15.608 11.6358 15.7309 11.6012 15.8544 11.6109C15.9779 11.6206 16.0939 11.6741 16.1814 11.7617L19.7403 15.3211C19.8014 15.3822 19.8463 15.4576 19.871 15.5404C19.8957 15.6232 19.8993 15.7109 19.8816 15.7954C19.8639 15.88 19.8254 15.9589 19.7696 16.0249C19.7138 16.0908 19.6425 16.1419 19.562 16.1734L17.0493 17.1566L16.0661 19.6693C16.0279 19.7668 15.9613 19.8505 15.8749 19.9095C15.7884 19.9685 15.6862 20 15.5816 20L15.582 19.9997Z" fill="url(#paint0_linear_122_1591)"/>
<path d="M4.31084 19.9997C4.20619 19.9997 4.10397 19.9681 4.01754 19.9091C3.9311 19.8502 3.86447 19.7665 3.82635 19.669L2.84312 17.1563L0.330673 16.1731C0.250197 16.1416 0.178832 16.0905 0.123025 16.0246C0.0672175 15.9586 0.0287263 15.8797 0.0110275 15.7951C-0.00667127 15.7106 -0.00301991 15.6229 0.0216518 15.5401C0.0463235 15.4573 0.0912382 15.3819 0.152339 15.3208L3.71122 11.7614C3.79881 11.6738 3.91479 11.6203 4.03829 11.6106C4.16179 11.6009 4.2847 11.6355 4.38492 11.7084L8.77616 14.8989C8.83706 14.9431 8.88765 15 8.92444 15.0656C8.96123 15.1312 8.98334 15.2041 8.98926 15.2791C8.99517 15.3541 8.98475 15.4295 8.9587 15.5001C8.93265 15.5707 8.8916 15.6348 8.83838 15.6879L4.67864 19.8472C4.63035 19.8955 4.57301 19.9338 4.50991 19.96C4.4468 19.9862 4.37916 19.9997 4.31084 19.9997Z" fill="url(#paint1_linear_122_1591)"/>
<path d="M9.94647 16.6309C9.58337 16.6308 9.22966 16.5155 8.93624 16.3016L7.83252 15.4997C7.71679 15.4153 7.57715 15.3699 7.43387 15.3702H6.06968C5.70656 15.3709 5.3526 15.2562 5.05883 15.0428C4.76505 14.8294 4.54662 14.5282 4.43502 14.1826L4.01363 12.8851C3.96965 12.7487 3.88334 12.63 3.76725 12.546L2.66328 11.7441C2.36913 11.5312 2.15018 11.2304 2.03799 10.885C1.92579 10.5397 1.92615 10.1677 2.039 9.82253L2.46039 8.52503C2.50497 8.38889 2.50497 8.24207 2.46039 8.10593L2.039 6.80843C1.92615 6.46329 1.9258 6.09124 2.03799 5.74589C2.15019 5.40054 2.36913 5.09973 2.66328 4.88681L3.76694 4.08493C3.88303 4.00098 3.96934 3.8822 4.01332 3.74585L4.43471 2.44834C4.5463 2.10279 4.76472 1.80159 5.0585 1.58815C5.35228 1.37471 5.70624 1.26006 6.06937 1.26072H7.43377C7.57703 1.26102 7.71666 1.21564 7.83237 1.13118L8.93614 0.329299C9.2295 0.115307 9.58325 0 9.94637 0C10.3095 0 10.6632 0.115307 10.9566 0.329299L12.0603 1.13118C12.1761 1.21564 12.3157 1.26101 12.459 1.26072H13.8232C14.1863 1.26002 14.5402 1.37463 14.834 1.58803C15.1278 1.80143 15.3463 2.1026 15.4579 2.44814L15.8793 3.74564C15.9233 3.88199 16.0096 4.00077 16.1256 4.08472L17.2297 4.88681C17.5238 5.09972 17.7427 5.40052 17.8549 5.74586C17.9671 6.0912 17.9668 6.46325 17.8539 6.80838L17.4326 8.10588C17.388 8.24202 17.388 8.38883 17.4326 8.52497L17.8539 9.82253C17.9668 10.1677 17.9671 10.5397 17.855 10.885C17.7428 11.2304 17.5238 11.5312 17.2297 11.7441L16.1259 12.5458C16.0098 12.6297 15.9235 12.7485 15.8795 12.8849L15.4581 14.1824C15.3465 14.5279 15.1281 14.8291 14.8343 15.0426C14.5406 15.256 14.1866 15.3706 13.8235 15.37H12.4592C12.3159 15.3697 12.1763 15.4151 12.0605 15.4995L10.9567 16.3018C10.6633 16.5156 10.3095 16.6308 9.94647 16.6309Z" fill="url(#paint2_linear_122_1591)"/>
<path d="M12.0779 11.6919C12.0032 11.6919 11.9296 11.6738 11.8635 11.639L9.94657 10.6313L8.02968 11.639C7.95356 11.679 7.86777 11.6969 7.782 11.6907C7.69622 11.6845 7.6139 11.6545 7.54432 11.6039C7.47475 11.5534 7.42071 11.4844 7.38831 11.4047C7.35591 11.3251 7.34644 11.2379 7.36098 11.1532L7.72712 9.01871L6.17632 7.50703C6.11473 7.44702 6.07116 7.37097 6.05055 7.28748C6.02993 7.20399 6.03309 7.1164 6.05966 7.03462C6.08623 6.95283 6.13516 6.88011 6.2009 6.82468C6.26665 6.76925 6.3466 6.73333 6.4317 6.72097L8.57504 6.40956L9.53345 4.46755C9.57152 4.39044 9.63039 4.32551 9.70342 4.28012C9.77645 4.23472 9.86073 4.21066 9.94672 4.21066C10.0327 4.21066 10.117 4.23472 10.19 4.28012C10.2631 4.32551 10.3219 4.39044 10.36 4.46755L11.3184 6.40956L13.4618 6.72097C13.5469 6.73333 13.6268 6.76925 13.6925 6.82468C13.7583 6.88011 13.8072 6.95283 13.8338 7.03462C13.8604 7.1164 13.8635 7.20399 13.8429 7.28748C13.8223 7.37097 13.7787 7.44702 13.7171 7.50703L12.166 9.01861L12.5322 11.1531C12.5435 11.2192 12.5403 11.287 12.5227 11.3518C12.5051 11.4166 12.4735 11.4767 12.4303 11.528C12.387 11.5793 12.3331 11.6206 12.2722 11.6489C12.2113 11.6772 12.145 11.6918 12.0779 11.6918V11.6919Z" fill="white"/>
<defs>
<linearGradient id="paint0_linear_122_1591" x1="18.6636" y1="18.7706" x2="12.4537" y2="12.5608" gradientUnits="userSpaceOnUse">
<stop stop-color="#C21500"/>
<stop offset="1" stop-color="#F85032"/>
</linearGradient>
<linearGradient id="paint1_linear_122_1591" x1="7.43179" y1="18.4409" x2="0.382853" y2="11.392" gradientUnits="userSpaceOnUse">
<stop stop-color="#C21500"/>
<stop offset="1" stop-color="#F85032"/>
</linearGradient>
<linearGradient id="paint2_linear_122_1591" x1="16.5767" y1="14.9457" x2="2.34297" y2="0.71198" gradientUnits="userSpaceOnUse">
<stop stop-color="#F2994A"/>
<stop offset="1" stop-color="#F2C94C"/>
</linearGradient>
</defs>
</svg>
