<?xml version="1.0" encoding="UTF-8"?> <svg xmlns="http://www.w3.org/2000/svg" xmlns:xlink="http://www.w3.org/1999/xlink" version="1.1" id="Layer_1" x="0px" y="0px" viewBox="0 0 24.4 31.1" style="enable-background:new 0 0 24.4 31.1;" xml:space="preserve"> <style type="text/css"> .st0{fill-rule:evenodd;clip-rule:evenodd;fill:#011829;} </style> <path class="st0" d="M19.5,13L19.5,13c1.3,1.6,2,3.6,2,5.8c0,2.2-0.8,4.3-2.1,5.9l-0.1,0.1l0-0.2c0-0.1-0.1-0.3-0.1-0.5 c-0.7-2.9-2.8-5.3-6.3-7.3c-2.4-1.3-3.7-3-4.1-4.8c-0.2-1.2-0.1-2.4,0.3-3.4c0.3-1,0.8-1.9,1.2-2.4l0,0l1.4-1.7 c0.2-0.3,0.7-0.3,0.9,0L19.5,13z M21.7,11.3L21.7,11.3L12.5,0.2c-0.2-0.2-0.5-0.2-0.7,0L2.7,11.3l0,0l0,0C1,13.4,0,16.1,0,19 c0,6.7,5.5,12.2,12.2,12.2c6.7,0,12.2-5.4,12.2-12.2C24.4,16.1,23.4,13.4,21.7,11.3L21.7,11.3z M4.9,13L4.9,13l0.8-1l0,0.2 c0,0.1,0,0.3,0.1,0.4c0.5,2.8,2.4,5.1,5.6,6.9c2.7,1.6,4.3,3.4,4.8,5.3c0.2,0.8,0.2,1.6,0.1,2.3l0,0l0,0c-1.2,0.6-2.6,0.9-4.1,0.9 c-5.2,0-9.3-4.2-9.3-9.3C2.8,16.6,3.6,14.6,4.9,13z"></path> </svg> 