<svg width="16" height="15" viewBox="0 0 16 15" fill="none" xmlns="http://www.w3.org/2000/svg">
<path fill-rule="evenodd" clip-rule="evenodd" d="M15.662 7.5C15.662 11.6421 12.3041 15 8.16199 15C4.01986 15 0.661987 11.6421 0.661987 7.5C0.661987 3.35787 4.01986 0 8.16199 0C12.3041 0 15.662 3.35787 15.662 7.5ZM8.8807 5.19865C7.59223 5.7552 3.87711 7.33573 3.87711 7.33573C2.99666 7.69192 3.51202 8.02584 3.51202 8.02584C3.51202 8.02584 4.26363 8.29299 4.9079 8.49331C5.55213 8.69367 5.89573 8.47107 5.89573 8.47107C5.89573 8.47107 7.39896 7.44705 8.92364 6.35623C9.99737 5.59936 9.73969 6.22267 9.48198 6.48982C8.92364 7.06861 8.00024 7.98132 7.22714 8.71594C6.88357 9.02761 7.05535 9.29473 7.20568 9.42829C7.64288 9.81178 8.67258 10.5092 9.14007 10.8259C9.26961 10.9136 9.35599 10.9721 9.37463 10.9866C9.48198 11.0757 10.0833 11.4763 10.4484 11.3873C10.8134 11.2983 10.8564 10.7862 10.8564 10.7862C10.8564 10.7862 11.1355 8.96082 11.3932 7.29121C11.441 6.9634 11.4887 6.64247 11.5332 6.34321C11.6489 5.56537 11.7428 4.93398 11.7583 4.7089C11.8227 3.95203 11.0496 4.26367 11.0496 4.26367C11.0496 4.26367 9.37463 4.97605 8.8807 5.19865Z" fill="white"/>
</svg>
