<svg width="24" height="24" viewBox="0 0 24 24" fill="none" xmlns="http://www.w3.org/2000/svg">
<path d="M12 0C11.8035 0 11.6072 0.00485542 11.4112 0.0145663C11.215 0.024277 11.0192 0.0385877 10.8237 0.0580093C10.6285 0.0771754 10.4335 0.101197 10.2393 0.130074C10.0451 0.158695 9.85161 0.192427 9.65893 0.230759C9.46625 0.269092 9.27484 0.312024 9.0842 0.359811C8.89382 0.407343 8.70446 0.45973 8.51663 0.516717C8.3288 0.573704 8.14225 0.635291 7.95724 0.701478C7.77248 0.767665 7.58925 0.838451 7.40781 0.913582C7.22637 0.988713 7.04698 1.06819 6.86937 1.15226C6.69177 1.23608 6.51646 1.3245 6.3432 1.41701C6.17019 1.50952 5.99923 1.60637 5.83083 1.70731C5.66242 1.80825 5.49657 1.91328 5.33328 2.0224C5.16998 2.13152 5.0095 2.24473 4.85157 2.36151C4.6939 2.47856 4.53904 2.59943 4.38724 2.72388C4.23544 2.84859 4.08697 2.97687 3.94131 3.10874C3.7959 3.2406 3.65356 3.37604 3.5148 3.5148C3.37604 3.65356 3.2406 3.7959 3.10874 3.94131C2.97687 4.08697 2.84859 4.23544 2.72388 4.38724C2.59943 4.53904 2.47856 4.6939 2.36151 4.85157C2.24473 5.0095 2.13152 5.16998 2.0224 5.33328C1.91328 5.49657 1.80825 5.66242 1.70731 5.83083C1.60637 5.99923 1.50952 6.17019 1.41701 6.3432C1.3245 6.51646 1.23608 6.69177 1.15226 6.86937C1.06819 7.04698 0.988713 7.22637 0.913582 7.40781C0.838451 7.58925 0.767665 7.77248 0.701478 7.95724C0.635291 8.14225 0.573704 8.3288 0.516717 8.51663C0.45973 8.70446 0.407343 8.89382 0.359811 9.0842C0.312024 9.27484 0.269092 9.46625 0.230759 9.65893C0.192427 9.85161 0.158695 10.0451 0.130074 10.2393C0.101197 10.4335 0.0771754 10.6285 0.0580093 10.8237C0.0385877 11.0192 0.024277 11.215 0.0145663 11.4112C0.00485542 11.6072 0 11.8035 0 12C0 12.1963 0.00485542 12.3928 0.0145663 12.5888C0.024277 12.785 0.0385877 12.9808 0.0580093 13.1763C0.0771754 13.3715 0.101197 13.5665 0.130074 13.7607C0.158695 13.9549 0.192427 14.1484 0.230759 14.3411C0.269092 14.5338 0.312024 14.7252 0.359811 14.9158C0.407343 15.1062 0.45973 15.2955 0.516717 15.4834C0.573704 15.6712 0.635291 15.8577 0.701478 16.0428C0.767665 16.2275 0.838451 16.4108 0.913582 16.5922C0.988713 16.7736 1.06819 16.953 1.15226 17.1306C1.23608 17.3082 1.3245 17.4835 1.41701 17.6568C1.50952 17.8298 1.60637 18.0008 1.70731 18.1692C1.80825 18.3376 1.91328 18.5034 2.0224 18.6667C2.13152 18.83 2.24473 18.9905 2.36151 19.1484C2.47856 19.3061 2.59943 19.461 2.72388 19.6128C2.84859 19.7646 2.97687 19.913 3.10874 20.0587C3.2406 20.2041 3.37604 20.3464 3.5148 20.4852C3.65356 20.624 3.7959 20.7594 3.94131 20.8913C4.08697 21.0231 4.23544 21.1514 4.38724 21.2761C4.53904 21.4006 4.6939 21.5214 4.85157 21.6385C5.0095 21.7553 5.16998 21.8685 5.33328 21.9776C5.49657 22.0867 5.66242 22.1917 5.83083 22.2927C5.99923 22.3936 6.17019 22.4905 6.3432 22.583C6.51646 22.6755 6.69177 22.7639 6.86937 22.8477C7.04698 22.9318 7.22637 23.0113 7.40781 23.0864C7.58925 23.1615 7.77248 23.2323 7.95724 23.2985C8.14225 23.3647 8.3288 23.426 8.51663 23.4833C8.70446 23.5403 8.89382 23.5927 9.0842 23.6402C9.27484 23.688 9.46625 23.7309 9.65893 23.7692C9.85161 23.8076 10.0451 23.8413 10.2393 23.8699C10.4335 23.8988 10.6285 23.9228 10.8237 23.942C11.0192 23.9614 11.215 23.9757 11.4112 23.9854C11.6072 23.9951 11.8035 24 12 24C12.1963 24 12.3928 23.9951 12.5888 23.9854C12.785 23.9757 12.9808 23.9614 13.1763 23.942C13.3715 23.9228 13.5665 23.8988 13.7607 23.8699C13.9549 23.8413 14.1484 23.8076 14.3411 23.7692C14.5338 23.7309 14.7252 23.688 14.9158 23.6402C15.1062 23.5927 15.2955 23.5403 15.4834 23.4833C15.6712 23.426 15.8577 23.3645 16.0428 23.2985C16.2275 23.2323 16.4108 23.1615 16.5922 23.0864C16.7736 23.0113 16.953 22.9318 17.1306 22.8477C17.3082 22.7639 17.4835 22.6755 17.6568 22.583C17.8298 22.4905 18.0008 22.3936 18.1692 22.2927C18.3376 22.1917 18.5034 22.0867 18.6667 21.9776C18.83 21.8685 18.9905 21.7553 19.1484 21.6385C19.3061 21.5214 19.461 21.4006 19.6128 21.2761C19.7646 21.1514 19.913 21.0231 20.0587 20.8913C20.2041 20.7594 20.3464 20.624 20.4852 20.4852C20.624 20.3464 20.7594 20.2041 20.8913 20.0587C21.0231 19.913 21.1514 19.7646 21.2761 19.6128C21.4006 19.461 21.5214 19.3061 21.6385 19.1484C21.7553 18.9905 21.8685 18.83 21.9776 18.6667C22.0867 18.5034 22.1917 18.3376 22.2927 18.1692C22.3936 18.0008 22.4905 17.8298 22.583 17.6568C22.6755 17.4835 22.7639 17.3082 22.8477 17.1306C22.9318 16.953 23.0113 16.7736 23.0864 16.5922C23.1615 16.4108 23.2323 16.2275 23.2985 16.0428C23.3647 15.8577 23.426 15.6712 23.4833 15.4834C23.5403 15.2955 23.5927 15.1062 23.6402 14.9158C23.688 14.7252 23.7309 14.5338 23.7692 14.3411C23.8076 14.1484 23.8413 13.9549 23.8699 13.7607C23.8988 13.5665 23.9228 13.3715 23.942 13.1763C23.9614 12.9808 23.9757 12.785 23.9854 12.5888C23.9951 12.3928 24 12.1963 24 12C24 11.8035 23.9951 11.6072 23.9854 11.4112C23.9757 11.215 23.9614 11.0192 23.942 10.8237C23.9228 10.6285 23.8988 10.4335 23.8699 10.2393C23.8413 10.0451 23.8076 9.85161 23.7692 9.65893C23.7309 9.46625 23.688 9.27484 23.6402 9.0842C23.5927 8.89382 23.5403 8.70446 23.4833 8.51663C23.426 8.3288 23.3645 8.14225 23.2985 7.95724C23.2323 7.77248 23.1615 7.58925 23.0864 7.40781C23.0113 7.22637 22.9318 7.04698 22.8477 6.86937C22.7639 6.69177 22.6755 6.51646 22.583 6.3432C22.4905 6.17019 22.3936 5.99923 22.2927 5.83083C22.1917 5.66242 22.0867 5.49657 21.9776 5.33328C21.8685 5.16998 21.7553 5.0095 21.6385 4.85157C21.5214 4.6939 21.4006 4.53904 21.2761 4.38724C21.1514 4.23544 21.0231 4.08697 20.8913 3.94131C20.7594 3.7959 20.624 3.65356 20.4852 3.5148C20.3464 3.37604 20.2041 3.2406 20.0587 3.10874C19.913 2.97687 19.7646 2.84859 19.6128 2.72388C19.461 2.59943 19.3061 2.47856 19.1484 2.36151C18.9905 2.24473 18.83 2.13152 18.6667 2.0224C18.5034 1.91328 18.3376 1.80825 18.1692 1.70731C18.0008 1.60637 17.8298 1.50952 17.6568 1.41701C17.4835 1.3245 17.3082 1.23608 17.1306 1.15226C16.953 1.06819 16.7736 0.988713 16.5922 0.913582C16.4108 0.838451 16.2275 0.767665 16.0428 0.701478C15.8577 0.635291 15.6712 0.573704 15.4834 0.516717C15.2955 0.45973 15.1062 0.407343 14.9158 0.359811C14.7252 0.312024 14.5338 0.269092 14.3411 0.230759C14.1484 0.192427 13.9549 0.158695 13.7607 0.130074C13.5665 0.101197 13.3715 0.0771754 13.1763 0.0580093C12.9808 0.0385877 12.785 0.024277 12.5888 0.0145663C12.3928 0.00485542 12.1963 0 12 0Z" fill="#571AFF"/>
<mask id="mask0_2_855" style="mask-type:luminance" maskUnits="userSpaceOnUse" x="0" y="0" width="24" height="24">
<path fill-rule="evenodd" clip-rule="evenodd" d="M0.748779 0.799805H23.0734V23.1244H0.748779V0.799805Z" fill="white"/>
</mask>
<g mask="url(#mask0_2_855)">
<path fill-rule="evenodd" clip-rule="evenodd" d="M8.03063 0.876969C5.85081 1.63671 3.86802 3.07187 2.55143 4.84256C2.50032 4.9113 2.45228 4.97263 2.44462 4.97876C2.41063 5.00585 1.95013 5.7081 1.80166 5.95904C1.45335 6.54808 1.06696 7.38858 0.818822 8.09644L0.748291 8.29781L0.754169 12.0631L0.760046 15.8285L0.866865 16.0966C0.925641 16.2441 0.989783 16.4102 1.00946 16.4654C1.20725 17.0263 1.69893 17.9596 2.16914 18.6667C2.58414 19.2907 2.97258 19.7637 3.5519 20.3505C4.7379 21.552 6.11734 22.4506 7.69356 23.0485L7.95345 23.1472H15.9797L16.2922 23.0266C17.4994 22.5609 18.5186 21.9622 19.6212 21.0701C19.8885 20.8539 20.728 20.0267 20.9036 19.8064C20.9721 19.7203 21.0794 19.5897 21.1415 19.5158C21.3503 19.2687 21.7581 18.7083 21.9007 18.473C21.913 18.4525 22.0017 18.3066 22.0978 18.1489C22.1938 17.9912 22.385 17.6358 22.5225 17.3593C22.7732 16.8556 22.8018 16.7932 22.8951 16.5436C22.9224 16.47 22.9597 16.3762 22.9776 16.3358C23.1056 16.0458 23.0959 16.4007 23.0964 12.0194C23.0967 7.63365 23.1067 7.99218 22.9776 7.7006C22.9597 7.66022 22.9122 7.54139 22.8723 7.43687C22.73 7.06582 22.339 6.28793 22.063 5.82795C20.7273 3.60034 18.6251 1.87514 16.1116 0.943667L15.7244 0.800049L11.9855 0.801071L8.24631 0.801838L8.03063 0.876969ZM5.96577 1.89122C5.92769 1.92469 5.77692 2.0103 5.77692 1.99829C5.77692 1.9919 5.8196 1.96098 5.87198 1.9298C5.96833 1.8718 6.0041 1.85723 5.96577 1.89122ZM5.08417 2.46315C5.08417 2.46852 5.05146 2.49433 5.01159 2.5209L4.93902 2.56895L5.00597 2.51119C5.07471 2.45216 5.08417 2.44628 5.08417 2.46315ZM4.7489 2.70774C4.7489 2.71234 4.70137 2.75348 4.64285 2.79897L4.5368 2.88177L4.63723 2.79054C4.73689 2.70033 4.7489 2.69138 4.7489 2.70774ZM4.10082 3.24209C4.10082 3.24541 4.04307 3.30317 3.97253 3.37038L3.84399 3.49253L3.96615 3.36424C4.07961 3.24465 4.10082 3.22548 4.10082 3.24209ZM20.1689 3.53721C20.2356 3.60493 20.2852 3.66013 20.2791 3.66013C20.2729 3.66013 20.2134 3.60493 20.1467 3.53721C20.0797 3.46975 20.0302 3.4143 20.0363 3.4143C20.0424 3.4143 20.1022 3.46975 20.1689 3.53721ZM20.4482 3.81655C20.5087 3.87814 20.5532 3.92848 20.5471 3.92848C20.5409 3.92848 20.4863 3.87814 20.4259 3.81655C20.3654 3.75522 20.3209 3.70487 20.327 3.70487C20.3332 3.70487 20.3876 3.75522 20.4482 3.81655ZM3.45274 3.8899C3.45274 3.89348 3.38502 3.9612 3.30197 4.04093L3.15119 4.18531L3.29583 4.03454C3.42999 3.8945 3.45274 3.87355 3.45274 3.8899ZM17.9078 3.94864C18.1357 4.05137 18.1961 4.25862 18.0803 4.54023C18.0504 4.6123 17.7872 5.11521 17.4951 5.65748C16.9186 6.72746 16.8626 6.84425 16.8621 6.97892C16.8611 7.19716 16.7348 6.99885 18.6972 9.86175C20.2512 12.129 20.1392 11.9314 20.1178 12.3625C20.0973 12.7829 19.6532 15.354 19.5742 15.5109C19.428 15.8014 19.416 15.805 17.789 16.0302C16.7852 16.1692 16.756 16.1845 16.6617 16.6192C16.5664 17.0582 16.6479 16.9925 13.8446 18.8905C13.0575 19.4233 13.474 19.2917 10.2779 20.0172C7.56349 20.6336 7.55531 20.6351 7.39917 20.6001C7.07335 20.527 7.04217 20.4757 6.61924 19.3035C6.45288 18.8427 6.08029 17.81 5.79101 17.0089C5.50173 16.2078 5.24848 15.4938 5.22804 15.4222C5.18511 15.2722 5.14013 12.8772 5.15904 11.7612C5.17233 10.9828 5.19431 10.898 5.47464 10.5545C5.78973 10.1682 5.79024 10.1738 5.34304 9.20448C4.91704 8.28068 4.77367 7.87385 4.80179 7.66788C4.83475 7.42766 4.87768 7.38269 5.99136 6.4162C7.15384 5.4073 7.20444 5.36974 7.60259 5.21845L7.7324 5.16913L10.4701 5.15763L13.2075 5.14639L13.3355 5.08352C13.4955 5.00482 13.5474 4.94221 13.7557 4.57345C14.1576 3.86226 14.0692 3.8868 16.2023 3.8914L17.789 3.89472L17.9078 3.94864ZM14.8512 4.668C14.5982 4.7117 14.521 4.78709 14.2672 5.23608C14.0401 5.63857 13.887 5.79241 13.6322 5.87546C13.5614 5.89846 12.9496 5.90715 10.7047 5.91661L7.86654 5.92836L7.72114 5.99736C7.55426 6.07658 7.51746 6.10622 6.61513 6.88897C5.4368 7.91065 5.48739 7.68449 6.12626 9.0739C6.69767 10.3166 6.69971 10.3585 6.21315 10.9006C6.13035 10.9928 6.03606 11.1185 6.0036 11.1801L5.94457 11.2918V13.2025C5.94457 14.9906 5.94712 15.1227 5.98571 15.2584C6.02174 15.3852 6.74469 17.4045 7.30638 18.9477C7.62735 19.8289 7.64422 19.8383 8.53684 19.6293C8.78268 19.5718 9.24522 19.4655 9.56491 19.3932C13.034 18.6091 12.7843 18.6769 13.1853 18.4121C13.7245 18.0559 15.6009 16.761 15.6848 16.6872C15.8228 16.5658 15.8912 16.414 15.9462 16.1084C16.0528 15.5145 16.088 15.493 17.218 15.3361C19.1114 15.0729 18.8781 15.2845 19.1653 13.5713C19.4117 12.1049 19.4582 12.3265 18.6568 11.1576C18.3619 10.7275 17.6793 9.73193 17.1399 8.94536C15.7382 6.90123 15.8059 7.18438 16.4368 6.00682C17.0364 4.88803 17.0504 4.82874 16.7496 4.69126C16.6579 4.64935 15.0709 4.62993 14.8512 4.668ZM20.7275 19.9352C20.7275 19.9383 20.5491 20.1169 20.3309 20.3318L19.9343 20.7226L20.325 20.326C20.6881 19.9575 20.7275 19.9191 20.7275 19.9352ZM3.66508 20.3762C3.8616 20.5727 4.01723 20.7337 4.01109 20.7337C4.00496 20.7337 3.83911 20.5727 3.64285 20.3762C3.44633 20.1795 3.29071 20.0187 3.29684 20.0187C3.30297 20.0187 3.46882 20.1795 3.66508 20.3762ZM6.22394 22.3105C6.22394 22.3166 6.19379 22.3059 6.15699 22.287C6.12019 22.2678 6.08978 22.2471 6.08978 22.241C6.08978 22.2348 6.12019 22.2456 6.15699 22.2645C6.19379 22.2836 6.22394 22.3043 6.22394 22.3105ZM6.52721 22.4715C6.51724 22.4817 6.29108 22.369 6.29108 22.354C6.29108 22.3481 6.34602 22.3703 6.41323 22.4033C6.48044 22.4363 6.53181 22.4672 6.52721 22.4715Z" fill="#541BFC"/>
</g>
<path fill-rule="evenodd" clip-rule="evenodd" d="M5.87191 1.92989C5.81953 1.96106 5.77685 1.99198 5.77685 1.99837C5.77685 2.01038 5.92762 1.92478 5.9657 1.8913C6.00403 1.85731 5.96826 1.87188 5.87191 1.92989ZM5.0059 2.51127L4.93895 2.56903L5.01152 2.52099C5.05139 2.49441 5.0841 2.4686 5.0841 2.46323C5.0841 2.44637 5.07464 2.45224 5.0059 2.51127ZM4.63716 2.7906L4.53673 2.88183L4.64278 2.79903C4.7358 2.72645 4.7634 2.69911 4.74346 2.69937C4.7404 2.69937 4.69261 2.74051 4.63716 2.7906ZM3.96608 3.36428L3.84392 3.49256L3.97246 3.37041C4.09181 3.25695 4.11097 3.23574 4.09436 3.23574C4.09104 3.23574 4.03329 3.29349 3.96608 3.36428ZM20.1465 3.53729C20.2132 3.60501 20.2728 3.66021 20.2789 3.66021C20.285 3.66021 20.2355 3.60501 20.1688 3.53729C20.1021 3.46983 20.0423 3.41438 20.0361 3.41438C20.03 3.41438 20.0796 3.46983 20.1465 3.53729ZM20.4259 3.81656C20.4862 3.87814 20.5409 3.92849 20.547 3.92849C20.5531 3.92849 20.5087 3.87814 20.4481 3.81656C20.3876 3.75522 20.3331 3.70488 20.327 3.70488C20.3209 3.70488 20.3653 3.75522 20.4259 3.81656ZM3.29576 4.03455L3.15112 4.18532L3.3019 4.04094C3.38495 3.96121 3.45267 3.89349 3.45267 3.88991C3.45267 3.87355 3.42993 3.89451 3.29576 4.03455ZM14.4926 3.9086C14.1872 3.95971 14.0142 4.11585 13.7556 4.57353C13.5473 4.94229 13.4954 5.0049 13.3355 5.08361L13.2074 5.14647L10.47 5.15772L7.73234 5.16922L7.60252 5.21854C7.20438 5.36982 7.15378 5.40739 5.99129 6.41629C4.87761 7.38277 4.83468 7.42774 4.80172 7.66796C4.77361 7.87393 4.91697 8.28076 5.34297 9.20457C5.79017 10.1739 5.78966 10.1682 5.47457 10.5546C5.19424 10.8981 5.17226 10.9829 5.15897 11.7613C5.14006 12.8773 5.18504 15.2723 5.22797 15.4223C5.24841 15.4938 5.50166 16.2078 5.79094 17.009C6.08022 17.8101 6.45281 18.8428 6.61917 19.3036C7.0421 20.4757 7.07328 20.5271 7.3991 20.6002C7.55524 20.6352 7.56342 20.6337 10.2778 20.0173C13.474 19.2918 13.0574 19.4234 13.8445 18.8906C16.6479 16.9926 16.5664 17.0583 16.6617 16.6193C16.756 16.1846 16.7851 16.1693 17.7889 16.0302C19.416 15.8051 19.428 15.8015 19.5742 15.511C19.6531 15.3541 20.0973 12.783 20.1177 12.3626C20.1392 11.9315 20.2511 12.1291 18.6971 9.86184C16.7348 6.99894 16.861 7.19724 16.862 6.979C16.8625 6.84433 16.9185 6.72754 17.495 5.65757C17.7871 5.11529 18.0503 4.61238 18.0802 4.54031C18.196 4.2587 18.1357 4.05145 17.9077 3.94872L17.7889 3.8948L16.2022 3.89148C15.3229 3.88969 14.5606 3.89736 14.4926 3.9086ZM16.7496 4.69132C17.0503 4.82881 17.0363 4.8881 16.4368 6.00688C15.8058 7.18445 15.7381 6.9013 17.1398 8.94542C17.6792 9.732 18.3618 10.7276 18.6567 11.1577C19.4581 12.3266 19.4116 12.105 19.1653 13.5713C18.9332 14.9556 18.9294 14.9682 18.6938 15.0852C18.5622 15.1506 18.6071 15.1432 17.218 15.3362C16.0879 15.4931 16.0527 15.5145 15.9461 16.1084C15.8912 16.4141 15.8227 16.5659 15.6847 16.6872C15.6009 16.7611 13.7244 18.0559 13.1852 18.4122C12.7842 18.6769 13.0339 18.6092 9.56484 19.3932C9.24515 19.4655 8.78261 19.5719 8.53677 19.6294C7.64415 19.8384 7.62728 19.8289 7.30631 18.9478C6.74462 17.4046 6.02168 15.3852 5.98564 15.2585C5.94706 15.1228 5.9445 14.9907 5.9445 13.2026V11.2919L6.00353 11.1802C6.03599 11.1186 6.13028 10.9929 6.21308 10.9006C6.69964 10.3586 6.6976 10.3167 6.12619 9.07396C5.48733 7.68455 5.43673 7.91071 6.61506 6.88903C7.5174 6.10629 7.55419 6.07665 7.72107 5.99743L7.86647 5.92843L10.7046 5.91667C12.9496 5.90722 13.5613 5.89853 13.6321 5.87553C13.8869 5.79248 14.04 5.63864 14.2672 5.23615C14.6104 4.62871 14.5672 4.64481 15.8222 4.6512C16.5464 4.65504 16.6829 4.66091 16.7496 4.69132ZM20.3249 20.326L19.9342 20.7226L20.3308 20.3318C20.549 20.1169 20.7274 19.9383 20.7274 19.9352C20.7274 19.9191 20.6881 19.9575 20.3249 20.326ZM3.64278 20.3763C3.83904 20.5728 4.00489 20.7338 4.01102 20.7338C4.01716 20.7338 3.86153 20.5728 3.66501 20.3763C3.46875 20.1795 3.3029 20.0188 3.29677 20.0188C3.29064 20.0188 3.44626 20.1795 3.64278 20.3763ZM6.08964 22.241C6.08964 22.2472 6.12005 22.2679 6.15685 22.287C6.19365 22.306 6.2238 22.3167 6.2238 22.3106C6.2238 22.3044 6.19365 22.2837 6.15685 22.2646C6.12005 22.2456 6.08964 22.2349 6.08964 22.241ZM6.29101 22.354C6.29101 22.3691 6.51717 22.4817 6.52714 22.4715C6.53174 22.4672 6.48037 22.4363 6.41317 22.4033C6.34596 22.3703 6.29101 22.3481 6.29101 22.354Z" fill="#F7F5FC"/>
<path d="M4.51008 3.34534C4.45923 3.34534 4.40838 3.34789 4.35752 3.353C4.30692 3.35786 4.25658 3.36527 4.20675 3.37524C4.15666 3.3852 4.10734 3.39747 4.05879 3.41229C4.00998 3.42711 3.96194 3.44423 3.91491 3.46391C3.86789 3.48333 3.8219 3.50505 3.77717 3.52908C3.7322 3.5531 3.6885 3.57916 3.64608 3.60753C3.60391 3.63589 3.56303 3.66605 3.52367 3.6985C3.48432 3.7307 3.4465 3.76495 3.41046 3.80098C3.37443 3.83675 3.34044 3.87458 3.30799 3.91393C3.27579 3.95328 3.24538 3.99417 3.21727 4.03659C3.1889 4.07876 3.16258 4.12246 3.13882 4.16743C3.1148 4.21241 3.09307 4.25815 3.0734 4.30543C3.05397 4.35245 3.03685 4.40024 3.02203 4.44905C3.00721 4.49786 2.99494 4.54718 2.98498 4.59701C2.97501 4.6471 2.9676 4.69718 2.96249 4.74804C2.95763 4.79864 2.95508 4.84949 2.95508 4.90034C2.95508 4.9512 2.95763 5.00205 2.96249 5.05291C2.9676 5.1035 2.97501 5.15385 2.98498 5.20368C2.99494 5.25377 3.00721 5.30309 3.02203 5.3519C3.03685 5.40045 3.05397 5.44849 3.0734 5.49551C3.09307 5.54254 3.1148 5.58853 3.13882 5.63351C3.16258 5.67823 3.1889 5.72193 3.21727 5.76435C3.24538 5.80652 3.27579 5.8474 3.30799 5.88676C3.34044 5.92611 3.37443 5.96393 3.41046 5.99997C3.4465 6.036 3.48432 6.06999 3.52367 6.10244C3.56303 6.13464 3.60391 6.16505 3.64608 6.19341C3.6885 6.22152 3.7322 6.24785 3.77717 6.27187C3.8219 6.29563 3.86789 6.31761 3.91491 6.33703C3.96194 6.35645 4.00998 6.37358 4.05879 6.3884C4.10734 6.40322 4.15666 6.41549 4.20675 6.42545C4.25658 6.43542 4.30692 6.44283 4.35752 6.44794C4.40838 6.4528 4.45923 6.45535 4.51008 6.45535C4.56094 6.45535 4.61179 6.4528 4.66239 6.44794C4.71325 6.44283 4.76359 6.43542 4.81342 6.42545C4.86325 6.41549 4.91283 6.40322 4.96138 6.3884C5.01019 6.37358 5.05798 6.35645 5.105 6.33703C5.15228 6.31761 5.19827 6.29563 5.243 6.27187C5.28797 6.24785 5.33167 6.22152 5.37384 6.19341C5.41626 6.16505 5.45714 6.13464 5.4965 6.10244C5.53585 6.06999 5.57367 6.036 5.60971 5.99997C5.64548 5.96393 5.67973 5.92611 5.71218 5.88676C5.74438 5.8474 5.77479 5.80652 5.8029 5.76435C5.83127 5.72193 5.85733 5.67823 5.88135 5.63351C5.90537 5.58853 5.9271 5.54254 5.94677 5.49551C5.96619 5.44849 5.98332 5.40045 5.99814 5.3519C6.01296 5.30309 6.02523 5.25377 6.03519 5.20368C6.04516 5.15385 6.05257 5.1035 6.05743 5.05291C6.06254 5.00205 6.06509 4.9512 6.06509 4.90034C6.06509 4.84949 6.06254 4.79864 6.05743 4.74804C6.05257 4.69718 6.04516 4.6471 6.03519 4.59701C6.02523 4.54718 6.01296 4.49786 5.99814 4.44905C5.98332 4.40024 5.96619 4.35245 5.94677 4.30543C5.9271 4.25815 5.90537 4.21241 5.88135 4.16743C5.85733 4.12246 5.83127 4.07876 5.8029 4.03659C5.77479 3.99417 5.74438 3.95328 5.71218 3.91393C5.67973 3.87458 5.64548 3.83675 5.60971 3.80098C5.57367 3.76495 5.53585 3.7307 5.4965 3.6985C5.45714 3.66605 5.41626 3.63589 5.37384 3.60753C5.33167 3.57916 5.28797 3.5531 5.243 3.52908C5.19827 3.50505 5.15228 3.48333 5.105 3.46391C5.05798 3.44423 5.01019 3.42711 4.96138 3.41229C4.91283 3.39747 4.86325 3.3852 4.81342 3.37524C4.76359 3.36527 4.71325 3.35786 4.66239 3.353C4.61179 3.34789 4.56094 3.34534 4.51008 3.34534Z" fill="#571AFF"/>
<path d="M5.19356 2.54218C5.1427 2.54218 5.09185 2.54448 5.04125 2.54959C4.99065 2.55444 4.94031 2.56211 4.89022 2.57182C4.84039 2.58179 4.79107 2.59431 4.74226 2.60913C4.69345 2.62369 4.64566 2.64082 4.59864 2.66049C4.55162 2.67992 4.50562 2.70164 4.46065 2.72566C4.41567 2.74968 4.37197 2.77575 4.32981 2.80411C4.28738 2.83248 4.2465 2.86263 4.20714 2.89509C4.16779 2.92729 4.13022 2.96153 4.09419 2.99756C4.05816 3.03359 4.02392 3.07116 3.99172 3.11051C3.95926 3.14987 3.92911 3.19075 3.90074 3.23318C3.87238 3.2756 3.84631 3.31904 3.82229 3.36402C3.79827 3.40899 3.77655 3.45499 3.75712 3.50201C3.73745 3.54903 3.72033 3.59682 3.7055 3.64563C3.69094 3.69444 3.67842 3.74376 3.66845 3.79359C3.65874 3.84368 3.65107 3.89402 3.64622 3.94462C3.64111 3.99522 3.63855 4.04607 3.63855 4.09693C3.63855 4.14804 3.64111 4.19889 3.64622 4.24949C3.65107 4.30009 3.65874 4.35043 3.66845 4.40052C3.67842 4.45035 3.69094 4.49967 3.7055 4.54848C3.72033 4.59703 3.73745 4.64508 3.75712 4.6921C3.77655 4.73912 3.79827 4.78512 3.82229 4.83009C3.84631 4.87507 3.87238 4.91851 3.90074 4.96093C3.92911 5.00335 3.95926 5.04424 3.99172 5.08359C4.02392 5.12295 4.05816 5.16051 4.09419 5.19655C4.13022 5.23258 4.16779 5.26682 4.20714 5.29902C4.2465 5.33122 4.28738 5.36163 4.32981 5.39C4.37197 5.41836 4.41567 5.44443 4.46065 5.46845C4.50562 5.49247 4.55162 5.51419 4.59864 5.53361C4.64566 5.55304 4.69345 5.57016 4.74226 5.58498C4.79107 5.5998 4.84039 5.61207 4.89022 5.62203C4.94031 5.632 4.99065 5.63941 5.04125 5.64452C5.09185 5.64963 5.1427 5.65193 5.19356 5.65193C5.24467 5.65193 5.29526 5.64963 5.34612 5.64452C5.39672 5.63941 5.44706 5.632 5.49689 5.62203C5.54698 5.61207 5.5963 5.5998 5.64511 5.58498C5.69366 5.57016 5.74171 5.55304 5.78873 5.53361C5.83575 5.51419 5.88175 5.49247 5.92672 5.46845C5.97144 5.44443 6.01514 5.41836 6.05756 5.39C6.09998 5.36163 6.14062 5.33122 6.18023 5.29902C6.21958 5.26682 6.25715 5.23258 6.29318 5.19655C6.32921 5.16051 6.36345 5.12295 6.39565 5.08359C6.42785 5.04424 6.45826 5.00335 6.48663 4.96093C6.51474 4.91851 6.54106 4.87507 6.56508 4.83009C6.5891 4.78512 6.61082 4.73912 6.63024 4.6921C6.64967 4.64508 6.66679 4.59703 6.68161 4.54848C6.69643 4.49967 6.7087 4.45035 6.71866 4.40052C6.72863 4.35043 6.73604 4.30009 6.74115 4.24949C6.74601 4.19889 6.74856 4.14804 6.74856 4.09693C6.74856 4.04607 6.74601 3.99522 6.74115 3.94462C6.73604 3.89402 6.72863 3.84368 6.71866 3.79359C6.7087 3.74376 6.69643 3.69444 6.68161 3.64563C6.66679 3.59682 6.64967 3.54903 6.63024 3.50201C6.61082 3.45499 6.5891 3.40899 6.56508 3.36402C6.54106 3.31904 6.51474 3.2756 6.48663 3.23318C6.45826 3.19075 6.42785 3.14987 6.39565 3.11051C6.36345 3.07116 6.32921 3.03359 6.29318 2.99756C6.25715 2.96153 6.21958 2.92729 6.18023 2.89509C6.14062 2.86263 6.09998 2.83248 6.05756 2.80411C6.01514 2.77575 5.97144 2.74968 5.92672 2.72566C5.88175 2.70164 5.83575 2.67992 5.78873 2.66049C5.74171 2.64082 5.69366 2.62369 5.64511 2.60913C5.5963 2.59431 5.54698 2.58179 5.49689 2.57182C5.44706 2.56211 5.39672 2.55444 5.34612 2.54959C5.29526 2.54448 5.24467 2.54218 5.19356 2.54218Z" fill="#571AFF"/>
<path d="M6.01607 2.13794C5.96496 2.13794 5.91436 2.14049 5.8635 2.14535C5.81291 2.15046 5.76256 2.15787 5.71273 2.16784C5.66264 2.1778 5.61332 2.19007 5.56451 2.20489C5.51596 2.21971 5.46792 2.23684 5.4209 2.25626C5.37388 2.27568 5.32788 2.29766 5.2829 2.32142C5.23818 2.34544 5.19448 2.37177 5.15206 2.39988C5.10964 2.42824 5.06901 2.45865 5.02965 2.49085C4.9903 2.52331 4.95248 2.55729 4.91645 2.59333C4.88041 2.62936 4.84643 2.66718 4.81397 2.70653C4.78177 2.74589 4.75136 2.78677 4.723 2.82894C4.69489 2.87136 4.66856 2.91506 4.64454 2.95978C4.62052 3.00476 4.5988 3.05076 4.57938 3.09778C4.55996 3.1448 4.54283 3.19284 4.52801 3.24165C4.51319 3.2902 4.50092 3.33952 4.49096 3.38961C4.48099 3.43944 4.47358 3.48979 4.46847 3.54038C4.46362 3.59124 4.46106 3.64209 4.46106 3.69295C4.46106 3.7438 4.46362 3.79465 4.46847 3.84525C4.47358 3.89611 4.48099 3.94619 4.49096 3.99628C4.50092 4.04611 4.51319 4.09543 4.52801 4.14424C4.54283 4.19305 4.55996 4.24084 4.57938 4.28786C4.5988 4.33514 4.62052 4.38088 4.64454 4.42586C4.66856 4.47083 4.69489 4.51453 4.723 4.5567C4.75136 4.59912 4.78177 4.64001 4.81397 4.67936C4.84643 4.71871 4.88041 4.75654 4.91645 4.79231C4.95248 4.82834 4.9903 4.86259 5.02965 4.89479C5.06901 4.92724 5.10964 4.9574 5.15206 4.98576C5.19448 5.01413 5.23818 5.04019 5.2829 5.06421C5.32788 5.08824 5.37388 5.10996 5.4209 5.12963C5.46792 5.14906 5.51596 5.16618 5.56451 5.181C5.61332 5.19582 5.66264 5.20809 5.71273 5.21805C5.76256 5.22802 5.81291 5.23543 5.8635 5.24029C5.91436 5.2454 5.96496 5.24795 6.01607 5.24795C6.06692 5.24795 6.11777 5.2454 6.16837 5.24029C6.21923 5.23543 6.26931 5.22802 6.3194 5.21805C6.36923 5.20809 6.41855 5.19582 6.46736 5.181C6.51617 5.16618 6.56396 5.14906 6.61098 5.12963C6.658 5.10996 6.704 5.08824 6.74898 5.06421C6.79395 5.04019 6.83765 5.01413 6.87982 4.98576C6.92224 4.9574 6.96313 4.92724 7.00248 4.89479C7.04183 4.86259 7.0794 4.82834 7.11543 4.79231C7.15146 4.75654 7.18571 4.71871 7.21791 4.67936C7.25036 4.64001 7.28052 4.59912 7.30888 4.5567C7.33725 4.51453 7.36331 4.47083 7.38733 4.42586C7.41136 4.38088 7.43308 4.33514 7.4525 4.28786C7.47218 4.24084 7.4893 4.19305 7.50412 4.14424C7.51869 4.09543 7.53121 4.04611 7.54117 3.99628C7.55114 3.94619 7.55855 3.89611 7.56341 3.84525C7.56852 3.79465 7.57107 3.7438 7.57107 3.69295C7.57107 3.64209 7.56852 3.59124 7.56341 3.54038C7.55855 3.48979 7.55114 3.43944 7.54117 3.38961C7.53121 3.33952 7.51869 3.2902 7.50412 3.24165C7.4893 3.19284 7.47218 3.1448 7.4525 3.09778C7.43308 3.05076 7.41136 3.00476 7.38733 2.95978C7.36331 2.91506 7.33725 2.87136 7.30888 2.82894C7.28052 2.78677 7.25036 2.74589 7.21791 2.70653C7.18571 2.66718 7.15146 2.62936 7.11543 2.59333C7.0794 2.55729 7.04183 2.52331 7.00248 2.49085C6.96313 2.45865 6.92224 2.42824 6.87982 2.39988C6.83765 2.37177 6.79395 2.34544 6.74898 2.32142C6.704 2.29766 6.658 2.27568 6.61098 2.25626C6.56396 2.23684 6.51617 2.21971 6.46736 2.20489C6.41855 2.19007 6.36923 2.1778 6.3194 2.16784C6.26931 2.15787 6.21923 2.15046 6.16837 2.14535C6.11777 2.14049 6.06692 2.13794 6.01607 2.13794Z" fill="#571AFF"/>
<path d="M6.74849 1.45227C6.69763 1.45227 6.64678 1.45483 6.59618 1.45968C6.54533 1.46479 6.49524 1.4722 6.44515 1.48217C6.39532 1.49214 6.346 1.5044 6.29719 1.51922C6.24838 1.53405 6.20059 1.55117 6.15357 1.57059C6.1063 1.59001 6.06055 1.61173 6.01558 1.63575C5.9706 1.65978 5.9269 1.6861 5.88474 1.71421C5.84232 1.74257 5.80143 1.77298 5.76207 1.80518C5.72272 1.83738 5.6849 1.87162 5.64912 1.90766C5.61309 1.94369 5.57885 1.98125 5.54665 2.02086C5.51419 2.06022 5.48404 2.10085 5.45567 2.14327C5.42731 2.18569 5.40124 2.22939 5.37722 2.27411C5.3532 2.31909 5.33148 2.36509 5.31206 2.41211C5.29238 2.45913 5.27526 2.50717 5.26043 2.55572C5.24561 2.60453 5.23335 2.65386 5.22338 2.70394C5.21341 2.75377 5.206 2.80412 5.20115 2.85472C5.19604 2.90557 5.19348 2.95617 5.19348 3.00728C5.19348 3.05813 5.19604 3.10899 5.20115 3.15958C5.206 3.21018 5.21341 3.26052 5.22338 3.31061C5.23335 3.36044 5.24561 3.40976 5.26043 3.45857C5.27526 3.50738 5.29238 3.55517 5.31206 3.60219C5.33148 3.64921 5.3532 3.69521 5.37722 3.74019C5.40124 3.78516 5.42731 3.82886 5.45567 3.87103C5.48404 3.91345 5.51419 3.95434 5.54665 3.99369C5.57885 4.03305 5.61309 4.07061 5.64912 4.10664C5.6849 4.14268 5.72272 4.17692 5.76207 4.20912C5.80143 4.24157 5.84232 4.27173 5.88474 4.30009C5.9269 4.32846 5.9706 4.35452 6.01558 4.37855C6.06055 4.40257 6.1063 4.42429 6.15357 4.44371C6.20059 4.46339 6.24838 4.48051 6.29719 4.49533C6.346 4.5099 6.39532 4.52242 6.44515 4.53239C6.49524 4.54235 6.54533 4.54976 6.59618 4.55462C6.64678 4.55973 6.69763 4.56228 6.74849 4.56228C6.79934 4.56228 6.8502 4.55973 6.90105 4.55462C6.95165 4.54976 7.00199 4.54235 7.05182 4.53239C7.10191 4.52242 7.15123 4.5099 7.20004 4.49533C7.24859 4.48051 7.29664 4.46339 7.34366 4.44371C7.39068 4.42429 7.43668 4.40257 7.48165 4.37855C7.52637 4.35452 7.57007 4.32846 7.61249 4.30009C7.65466 4.27173 7.69555 4.24157 7.7349 4.20912C7.77426 4.17692 7.81208 4.14268 7.84811 4.10664C7.88414 4.07061 7.91813 4.03305 7.95058 3.99369C7.98278 3.95434 8.01319 3.91345 8.04156 3.87103C8.06967 3.82886 8.09599 3.78516 8.12001 3.74019C8.14378 3.69521 8.16575 3.64921 8.18518 3.60219C8.2046 3.55517 8.22172 3.50738 8.23654 3.45857C8.25136 3.40976 8.26363 3.36044 8.2736 3.31061C8.28356 3.26052 8.29097 3.21018 8.29608 3.15958C8.30094 3.10899 8.30349 3.05813 8.30349 3.00728C8.30349 2.95617 8.30094 2.90557 8.29608 2.85472C8.29097 2.80412 8.28356 2.75377 8.2736 2.70394C8.26363 2.65386 8.25136 2.60453 8.23654 2.55572C8.22172 2.50717 8.2046 2.45913 8.18518 2.41211C8.16575 2.36509 8.14378 2.31909 8.12001 2.27411C8.09599 2.22939 8.06967 2.18569 8.04156 2.14327C8.01319 2.10085 7.98278 2.06022 7.95058 2.02086C7.91813 1.98125 7.88414 1.94369 7.84811 1.90766C7.81208 1.87162 7.77426 1.83738 7.7349 1.80518C7.69555 1.77298 7.65466 1.74257 7.61249 1.71421C7.57007 1.6861 7.52637 1.65978 7.48165 1.63575C7.43668 1.61173 7.39068 1.59001 7.34366 1.57059C7.29664 1.55117 7.24859 1.53405 7.20004 1.51922C7.15123 1.5044 7.10191 1.49214 7.05182 1.48217C7.00199 1.4722 6.95165 1.46479 6.90105 1.45968C6.8502 1.45483 6.79934 1.45227 6.74849 1.45227Z" fill="#571AFF"/>
<path d="M19.8954 3.34534C19.8366 3.34534 19.7786 3.35121 19.7211 3.36246C19.6636 3.37396 19.6079 3.39082 19.5538 3.41331C19.4996 3.4358 19.4482 3.46314 19.3997 3.49585C19.3509 3.52831 19.3059 3.56536 19.2642 3.60676C19.2228 3.64816 19.186 3.69339 19.1533 3.74195C19.1209 3.79076 19.0933 3.84212 19.0708 3.8963C19.0485 3.95047 19.0314 4.00618 19.0202 4.06368C19.0087 4.12118 19.0031 4.17919 19.0031 4.23771C19.0031 4.29623 19.0087 4.35449 19.0202 4.41174C19.0314 4.46923 19.0485 4.5252 19.0708 4.57912C19.0933 4.6333 19.1209 4.68492 19.1533 4.73347C19.186 4.78228 19.2228 4.82726 19.2642 4.86866C19.3059 4.91005 19.3509 4.94711 19.3997 4.97982C19.4482 5.01227 19.4996 5.03987 19.5538 5.0621C19.6079 5.08459 19.6636 5.10146 19.7211 5.11296C19.7786 5.12446 19.8366 5.13008 19.8954 5.13008C19.9539 5.13008 20.012 5.12446 20.0695 5.11296C20.1269 5.10146 20.1827 5.08459 20.2368 5.0621C20.291 5.03987 20.3424 5.01227 20.3909 4.97982C20.4397 4.94711 20.485 4.91005 20.5264 4.86866C20.5678 4.82726 20.6048 4.78228 20.6373 4.73347C20.6697 4.68492 20.6973 4.6333 20.7198 4.57912C20.7421 4.5252 20.7592 4.46923 20.7704 4.41174C20.7819 4.35449 20.7875 4.29623 20.7875 4.23771C20.7875 4.17919 20.7819 4.12118 20.7704 4.06368C20.7592 4.00618 20.7421 3.95047 20.7198 3.8963C20.6973 3.84212 20.6697 3.79076 20.6373 3.74195C20.6048 3.69339 20.5678 3.64816 20.5264 3.60676C20.485 3.56536 20.4397 3.52831 20.3909 3.49585C20.3424 3.46314 20.291 3.4358 20.2368 3.41331C20.1827 3.39082 20.1269 3.37396 20.0695 3.36246C20.012 3.35121 19.9539 3.34534 19.8954 3.34534Z" fill="#571AFF"/>
<path d="M19.2818 17.7115C19.2307 17.7115 19.1799 17.7138 19.1293 17.7189C19.0787 17.7238 19.0283 17.7314 18.9782 17.7411C18.9284 17.7511 18.8791 17.7636 18.8303 17.7784C18.7815 17.793 18.7337 17.8101 18.6866 17.8298C18.6396 17.8492 18.5936 17.8709 18.5486 17.895C18.5037 17.919 18.4602 17.9451 18.4178 17.9734C18.3754 18.0018 18.3345 18.0319 18.2951 18.0644C18.2558 18.0966 18.2182 18.1308 18.1822 18.1669C18.1462 18.2029 18.1119 18.2405 18.0797 18.2798C18.0473 18.3192 18.0171 18.3601 17.9887 18.4025C17.9604 18.4449 17.9343 18.4884 17.9103 18.5333C17.8863 18.5783 17.8645 18.6243 17.8451 18.6713C17.8257 18.7183 17.8086 18.7661 17.7938 18.8149C17.7789 18.8638 17.7664 18.9131 17.7567 18.9629C17.7467 19.013 17.7393 19.0633 17.7342 19.1139C17.7291 19.1645 17.7268 19.2154 17.7268 19.2662C17.7268 19.3173 17.7291 19.3682 17.7342 19.4188C17.7393 19.4694 17.7467 19.5197 17.7567 19.5698C17.7664 19.6197 17.7789 19.669 17.7938 19.7178C17.8086 19.7663 17.8257 19.8144 17.8451 19.8614C17.8645 19.9084 17.8863 19.9544 17.9103 19.9994C17.9343 20.0444 17.9604 20.0878 17.9887 20.1302C18.0171 20.1727 18.0473 20.2136 18.0797 20.2529C18.1119 20.2923 18.1462 20.3298 18.1822 20.3659C18.2182 20.4019 18.2558 20.4361 18.2951 20.4683C18.3345 20.5005 18.3754 20.5309 18.4178 20.5593C18.4602 20.5877 18.5037 20.6137 18.5486 20.6378C18.5936 20.6618 18.6396 20.6835 18.6866 20.7029C18.7337 20.7223 18.7815 20.7395 18.8303 20.7543C18.8791 20.7691 18.9284 20.7814 18.9782 20.7913C19.0283 20.8013 19.0787 20.8087 19.1293 20.8138C19.1799 20.8189 19.2307 20.8212 19.2818 20.8212C19.3327 20.8212 19.3835 20.8189 19.4341 20.8138C19.4847 20.8087 19.5351 20.8013 19.5851 20.7913C19.635 20.7814 19.6843 20.7691 19.7331 20.7543C19.7819 20.7395 19.8297 20.7223 19.8767 20.7029C19.9238 20.6835 19.9697 20.6618 20.0147 20.6378C20.0597 20.6137 20.1031 20.5877 20.1456 20.5593C20.188 20.5309 20.2289 20.5005 20.2682 20.4683C20.3076 20.4361 20.3451 20.4019 20.3812 20.3659C20.4172 20.3298 20.4515 20.2923 20.4837 20.2529C20.5161 20.2136 20.5463 20.1727 20.5746 20.1302C20.603 20.0878 20.6291 20.0444 20.6531 19.9994C20.6771 19.9544 20.6988 19.9084 20.7182 19.8614C20.7377 19.8144 20.755 19.7663 20.7696 19.7178C20.7844 19.669 20.797 19.6197 20.8067 19.5698C20.8166 19.5197 20.8243 19.4694 20.8292 19.4188C20.8343 19.3682 20.8366 19.3173 20.8366 19.2662C20.8366 19.2154 20.8343 19.1645 20.8292 19.1139C20.8243 19.0633 20.8166 19.013 20.8067 18.9629C20.797 18.9131 20.7844 18.8638 20.7696 18.8149C20.755 18.7661 20.7377 18.7183 20.7182 18.6713C20.6988 18.6243 20.6771 18.5783 20.6531 18.5333C20.6291 18.4884 20.603 18.4449 20.5746 18.4025C20.5463 18.3601 20.5161 18.3192 20.4837 18.2798C20.4515 18.2405 20.4172 18.2029 20.3812 18.1669C20.3451 18.1308 20.3076 18.0966 20.2682 18.0644C20.2289 18.0319 20.188 18.0018 20.1456 17.9734C20.1031 17.9451 20.0597 17.919 20.0147 17.895C19.9697 17.8709 19.9238 17.8492 19.8767 17.8298C19.8297 17.8101 19.7819 17.793 19.7331 17.7784C19.6843 17.7636 19.635 17.7511 19.5851 17.7411C19.5351 17.7314 19.4847 17.7238 19.4341 17.7189C19.3835 17.7138 19.3327 17.7115 19.2818 17.7115Z" fill="#571AFF"/>
<path d="M19.6252 17.3093C19.5741 17.3093 19.5232 17.3118 19.4726 17.3167C19.422 17.3218 19.3717 17.3292 19.3216 17.3392C19.2718 17.3491 19.2225 17.3614 19.1736 17.3762C19.1248 17.391 19.077 17.4082 19.03 17.4276C18.983 17.447 18.937 17.4687 18.892 17.4927C18.8471 17.5168 18.8036 17.5431 18.7612 17.5712C18.7188 17.5996 18.6779 17.63 18.6385 17.6622C18.5992 17.6944 18.5616 17.7286 18.5256 17.7647C18.4895 17.8007 18.4553 17.8382 18.4231 17.8776C18.3906 17.917 18.3605 17.9578 18.3321 18.0003C18.3038 18.0427 18.2777 18.0861 18.2537 18.1311C18.2297 18.1761 18.2079 18.2221 18.1885 18.2691C18.1691 18.3161 18.152 18.3642 18.1371 18.4127C18.1223 18.4615 18.1098 18.5108 18.1001 18.5609C18.0901 18.6108 18.0827 18.6611 18.0776 18.7117C18.0725 18.7626 18.0702 18.8132 18.0702 18.8643C18.0702 18.9151 18.0725 18.966 18.0776 19.0166C18.0827 19.0672 18.0901 19.1175 18.1001 19.1676C18.1098 19.2174 18.1223 19.2668 18.1371 19.3156C18.152 19.3644 18.1691 19.4122 18.1885 19.4592C18.2079 19.5062 18.2297 19.5522 18.2537 19.5972C18.2777 19.6422 18.3038 19.6856 18.3321 19.728C18.3605 19.7704 18.3906 19.8113 18.4231 19.8507C18.4553 19.89 18.4895 19.9276 18.5256 19.9636C18.5616 19.9997 18.5992 20.0339 18.6385 20.0661C18.6779 20.0986 18.7188 20.1287 18.7612 20.1571C18.8036 20.1854 18.8471 20.2115 18.892 20.2355C18.937 20.2596 18.983 20.2813 19.03 20.3007C19.077 20.3204 19.1248 20.3375 19.1736 20.3521C19.2225 20.3669 19.2718 20.3794 19.3216 20.3894C19.3717 20.3991 19.422 20.4068 19.4726 20.4116C19.5232 20.4167 19.5741 20.419 19.6252 20.419C19.6761 20.419 19.7269 20.4167 19.7775 20.4116C19.8281 20.4068 19.8784 20.3991 19.9285 20.3894C19.9784 20.3794 20.0277 20.3669 20.0765 20.3521C20.1253 20.3375 20.1731 20.3204 20.2201 20.3007C20.2671 20.2813 20.3131 20.2596 20.3581 20.2355C20.4031 20.2115 20.4465 20.1854 20.4889 20.1571C20.5314 20.1287 20.5723 20.0986 20.6116 20.0661C20.651 20.0339 20.6885 19.9997 20.7246 19.9636C20.7606 19.9276 20.7948 19.89 20.827 19.8507C20.8595 19.8113 20.8896 19.7704 20.918 19.728C20.9464 19.6856 20.9724 19.6422 20.9965 19.5972C21.0205 19.5522 21.0422 19.5062 21.0616 19.4592C21.0811 19.4122 21.0984 19.3644 21.113 19.3156C21.1278 19.2668 21.1403 19.2174 21.15 19.1676C21.16 19.1175 21.1677 19.0672 21.1725 19.0166C21.1776 18.966 21.1799 18.9151 21.1799 18.8643C21.1799 18.8132 21.1776 18.7626 21.1725 18.7117C21.1677 18.6611 21.16 18.6108 21.15 18.5609C21.1403 18.5108 21.1278 18.4615 21.113 18.4127C21.0984 18.3642 21.0811 18.3161 21.0616 18.2691C21.0422 18.2221 21.0205 18.1761 20.9965 18.1311C20.9724 18.0861 20.9464 18.0427 20.918 18.0003C20.8896 17.9578 20.8595 17.917 20.827 17.8776C20.7948 17.8382 20.7606 17.8007 20.7246 17.7647C20.6885 17.7286 20.651 17.6944 20.6116 17.6622C20.5723 17.63 20.5314 17.5996 20.4889 17.5712C20.4465 17.5431 20.4031 17.5168 20.3581 17.4927C20.3131 17.4687 20.2671 17.447 20.2201 17.4276C20.1731 17.4082 20.1253 17.391 20.0765 17.3762C20.0277 17.3614 19.9784 17.3491 19.9285 17.3392C19.8784 17.3292 19.8281 17.3218 19.7775 17.3167C19.7269 17.3118 19.6761 17.3093 19.6252 17.3093Z" fill="#571AFF"/>
<path d="M4.51013 18.6061C4.47307 18.6061 4.43602 18.6079 4.39922 18.6115C4.36217 18.6153 4.32562 18.6207 4.28933 18.6279C4.25279 18.6353 4.21701 18.6442 4.18149 18.6549C4.14597 18.6657 4.11122 18.6782 4.07697 18.6923C4.04273 18.7066 4.00925 18.7224 3.97654 18.7398C3.94383 18.7574 3.91189 18.7763 3.88122 18.797C3.8503 18.8175 3.82066 18.8397 3.79204 18.8632C3.76316 18.8867 3.73582 18.9115 3.7095 18.9378C3.68343 18.9639 3.65839 18.9915 3.63488 19.0201C3.61137 19.0487 3.58939 19.0784 3.56869 19.1093C3.54825 19.1402 3.52908 19.1719 3.5117 19.2046C3.49433 19.2373 3.47848 19.2708 3.46417 19.3051C3.45012 19.3393 3.43759 19.3741 3.42686 19.4096C3.41587 19.4451 3.40693 19.4811 3.39977 19.5174C3.39262 19.5537 3.387 19.5905 3.38342 19.6273C3.37984 19.6641 3.37805 19.7012 3.37805 19.7382C3.37805 19.7753 3.37984 19.8123 3.38342 19.8491C3.387 19.8862 3.39262 19.9227 3.39977 19.959C3.40693 19.9956 3.41587 20.0313 3.42686 20.0668C3.43759 20.1024 3.45012 20.1371 3.46417 20.1716C3.47848 20.2059 3.49433 20.2393 3.5117 20.2721C3.52908 20.3045 3.54825 20.3365 3.56869 20.3671C3.58939 20.398 3.61137 20.4277 3.63488 20.4566C3.65839 20.4852 3.68343 20.5125 3.7095 20.5388C3.73582 20.5649 3.76316 20.59 3.79204 20.6135C3.82066 20.637 3.8503 20.659 3.88122 20.6797C3.91189 20.7001 3.94383 20.7193 3.97654 20.7366C4.00925 20.7543 4.04273 20.7701 4.07697 20.7842C4.11122 20.7985 4.14597 20.8107 4.18149 20.8217C4.21701 20.8325 4.25279 20.8414 4.28933 20.8486C4.32562 20.8557 4.36217 20.8613 4.39922 20.8649C4.43602 20.8685 4.47307 20.8703 4.51013 20.8703C4.54718 20.8703 4.58424 20.8685 4.62103 20.8649C4.65809 20.8613 4.69463 20.8557 4.73092 20.8486C4.76721 20.8414 4.80324 20.8325 4.83876 20.8217C4.87428 20.8107 4.90904 20.7985 4.94328 20.7842C4.97752 20.7701 5.011 20.7543 5.04371 20.7366C5.07642 20.7193 5.10811 20.7001 5.13903 20.6797C5.16995 20.659 5.19959 20.637 5.22822 20.6135C5.25684 20.59 5.28444 20.5649 5.3105 20.5388C5.33682 20.5125 5.36161 20.4852 5.38512 20.4566C5.40863 20.4277 5.43087 20.398 5.45131 20.3671C5.47201 20.3365 5.49092 20.3045 5.50855 20.2721C5.52593 20.2393 5.54177 20.2059 5.55608 20.1716C5.57014 20.1371 5.58266 20.1024 5.59339 20.0668C5.60413 20.0313 5.61333 19.9956 5.62048 19.959C5.62764 19.9227 5.633 19.8862 5.63684 19.8491C5.64041 19.8123 5.6422 19.7753 5.6422 19.7382C5.6422 19.7012 5.64041 19.6641 5.63684 19.6273C5.633 19.5905 5.62764 19.5537 5.62048 19.5174C5.61333 19.4811 5.60413 19.4451 5.59339 19.4096C5.58266 19.3741 5.57014 19.3393 5.55608 19.3051C5.54177 19.2708 5.52593 19.2373 5.50855 19.2046C5.49092 19.1719 5.47201 19.1402 5.45131 19.1093C5.43087 19.0784 5.40863 19.0487 5.38512 19.0201C5.36161 18.9915 5.33682 18.9639 5.3105 18.9378C5.28444 18.9115 5.25684 18.8867 5.22822 18.8632C5.19959 18.8397 5.16995 18.8175 5.13903 18.797C5.10811 18.7763 5.07642 18.7574 5.04371 18.7398C5.011 18.7224 4.97752 18.7066 4.94328 18.6923C4.90904 18.6782 4.87428 18.6657 4.83876 18.6549C4.80324 18.6442 4.76721 18.6353 4.73092 18.6279C4.69463 18.6207 4.65809 18.6153 4.62103 18.6115C4.58424 18.6079 4.54718 18.6061 4.51013 18.6061Z" fill="#571AFF"/>
<path d="M4.46113 17.4565C4.41028 17.4565 4.35943 17.459 4.30857 17.4639C4.25797 17.469 4.20763 17.4764 4.1578 17.4864C4.10771 17.4963 4.05839 17.5086 4.00984 17.5234C3.96103 17.5383 3.91298 17.5554 3.86596 17.5748C3.81894 17.5942 3.77294 17.6159 3.72822 17.64C3.68325 17.664 3.63955 17.6903 3.59713 17.7184C3.55496 17.7468 3.51408 17.7772 3.47472 17.8094C3.43537 17.8416 3.39755 17.8758 3.36151 17.9119C3.32548 17.9479 3.29149 17.9855 3.25904 18.0248C3.22684 18.0642 3.19643 18.1051 3.16832 18.1475C3.13995 18.1899 3.11363 18.2333 3.08987 18.2783C3.06585 18.3233 3.04412 18.3693 3.02445 18.4163C3.00502 18.4633 2.9879 18.5114 2.97308 18.5599C2.95826 18.6087 2.94599 18.6581 2.93603 18.7082C2.92606 18.758 2.91865 18.8083 2.91354 18.8589C2.90868 18.9098 2.90613 18.9604 2.90613 19.0115C2.90613 19.0623 2.90868 19.1132 2.91354 19.1638C2.91865 19.2144 2.92606 19.2647 2.93603 19.3148C2.94599 19.3647 2.95826 19.414 2.97308 19.4628C2.9879 19.5116 3.00502 19.5594 3.02445 19.6064C3.04412 19.6534 3.06585 19.6994 3.08987 19.7444C3.11363 19.7894 3.13995 19.8328 3.16832 19.8752C3.19643 19.9177 3.22684 19.9585 3.25904 19.9979C3.29149 20.0373 3.32548 20.0748 3.36151 20.1109C3.39755 20.1469 3.43537 20.1811 3.47472 20.2133C3.51408 20.2458 3.55496 20.2759 3.59713 20.3043C3.63955 20.3327 3.68325 20.3587 3.72822 20.3828C3.77294 20.4068 3.81894 20.4285 3.86596 20.4479C3.91298 20.4676 3.96103 20.4847 4.00984 20.4993C4.05839 20.5141 4.10771 20.5266 4.1578 20.5366C4.20763 20.5463 4.25797 20.554 4.30857 20.5588C4.35943 20.5639 4.41028 20.5662 4.46113 20.5662C4.51199 20.5662 4.56284 20.5639 4.61344 20.5588C4.66429 20.554 4.71464 20.5463 4.76447 20.5366C4.8143 20.5266 4.86388 20.5141 4.91243 20.4993C4.96124 20.4847 5.00903 20.4676 5.05605 20.4479C5.10332 20.4285 5.14932 20.4068 5.19404 20.3828C5.23902 20.3587 5.28272 20.3327 5.32488 20.3043C5.36731 20.2759 5.40819 20.2458 5.44755 20.2133C5.4869 20.1811 5.52472 20.1469 5.56075 20.1109C5.59653 20.0748 5.63077 20.0373 5.66323 19.9979C5.69543 19.9585 5.72584 19.9177 5.75395 19.8752C5.78231 19.8328 5.80838 19.7894 5.8324 19.7444C5.85642 19.6994 5.87814 19.6534 5.89782 19.6064C5.91724 19.5594 5.93437 19.5116 5.94919 19.4628C5.96401 19.414 5.97628 19.3647 5.98624 19.3148C5.99621 19.2647 6.00362 19.2144 6.00847 19.1638C6.01358 19.1132 6.01614 19.0623 6.01614 19.0115C6.01614 18.9604 6.01358 18.9098 6.00847 18.8589C6.00362 18.8083 5.99621 18.758 5.98624 18.7082C5.97628 18.6581 5.96401 18.6087 5.94919 18.5599C5.93437 18.5114 5.91724 18.4633 5.89782 18.4163C5.87814 18.3693 5.85642 18.3233 5.8324 18.2783C5.80838 18.2333 5.78231 18.1899 5.75395 18.1475C5.72584 18.1051 5.69543 18.0642 5.66323 18.0248C5.63077 17.9855 5.59653 17.9479 5.56075 17.9119C5.52472 17.8758 5.4869 17.8416 5.44755 17.8094C5.40819 17.7772 5.36731 17.7468 5.32488 17.7184C5.28272 17.6903 5.23902 17.664 5.19404 17.64C5.14932 17.6159 5.10332 17.5942 5.05605 17.5748C5.00903 17.5554 4.96124 17.5383 4.91243 17.5234C4.86388 17.5086 4.8143 17.4963 4.76447 17.4864C4.71464 17.4764 4.66429 17.469 4.61344 17.4639C4.56284 17.459 4.51199 17.4565 4.46113 17.4565Z" fill="#571AFF"/>
<path d="M7.47298 21.3466C7.37076 21.3466 7.26956 21.351 7.16964 21.3594C7.06947 21.3678 6.9721 21.3804 6.87781 21.397C6.78351 21.4138 6.69381 21.434 6.60897 21.4583C6.52413 21.4826 6.44542 21.5099 6.37335 21.5406C6.30103 21.5715 6.23664 21.605 6.1799 21.641C6.12317 21.6773 6.07539 21.7154 6.03629 21.7557C5.99719 21.7959 5.9678 21.8373 5.94787 21.8799C5.92794 21.9226 5.91797 21.9658 5.91797 22.0093C5.91797 22.0527 5.92794 22.0959 5.94787 22.1386C5.9678 22.1812 5.99719 22.2226 6.03629 22.2628C6.07539 22.3031 6.12317 22.3412 6.1799 22.3775C6.23664 22.4135 6.30103 22.447 6.37335 22.4779C6.44542 22.5086 6.52413 22.5359 6.60897 22.5602C6.69381 22.5845 6.78351 22.6047 6.87781 22.6215C6.9721 22.6382 7.06947 22.6507 7.16964 22.6591C7.26956 22.6675 7.37076 22.6719 7.47298 22.6719C7.57494 22.6719 7.67614 22.6675 7.77631 22.6591C7.87648 22.6507 7.97359 22.6382 8.06789 22.6215C8.16219 22.6047 8.25188 22.5845 8.33673 22.5602C8.42157 22.5359 8.50028 22.5086 8.57234 22.4779C8.64466 22.447 8.70906 22.4135 8.76579 22.3775C8.82252 22.3412 8.87031 22.3031 8.90941 22.2628C8.94851 22.2226 8.97815 22.1812 8.99808 22.1386C9.01776 22.0959 9.02773 22.0527 9.02773 22.0093C9.02773 21.9658 9.01776 21.9226 8.99808 21.8799C8.97815 21.8373 8.94851 21.7959 8.90941 21.7557C8.87031 21.7154 8.82252 21.6773 8.76579 21.641C8.70906 21.605 8.64466 21.5715 8.57234 21.5406C8.50028 21.5099 8.42157 21.4826 8.33673 21.4583C8.25188 21.434 8.16219 21.4138 8.06789 21.397C7.97359 21.3804 7.87648 21.3678 7.77631 21.3594C7.67614 21.351 7.57494 21.3466 7.47298 21.3466Z" fill="#571AFF"/>
</svg>
